<?xml version="1.0" standalone="no"?>
<!DOCTYPE svg PUBLIC "-//W3C//DTD SVG 1.1//EN" "http://www.w3.org/Graphics/SVG/1.1/DTD/svg11.dtd" >
<svg xmlns="http://www.w3.org/2000/svg">
<metadata></metadata>
<defs>
<font id="primaveraregular" horiz-adv-x="1617" >
<font-face units-per-em="2048" ascent="1638" descent="-410" />
<missing-glyph horiz-adv-x="909" />
<glyph horiz-adv-x="2048" />
<glyph horiz-adv-x="2048" />
<glyph unicode="&#xd;" horiz-adv-x="909" />
<glyph unicode=" "  horiz-adv-x="909" />
<glyph unicode="&#x09;" horiz-adv-x="909" />
<glyph unicode="&#xa0;" horiz-adv-x="909" />
<glyph unicode="!" horiz-adv-x="622" d="M82 1118q0 106 59.5 168t165.5 62q102 0 167 -63.5t65 -166.5q-1 -28 -9 -65l-124 -578h-203l-113 565q-4 23 -6 47zM100 156q0 88 61.5 149.5t149.5 61.5q86 0 147.5 -59.5t61.5 -145.5q0 -90 -60.5 -151.5t-150.5 -61.5q-88 0 -148.5 59.5t-60.5 147.5z" />
<glyph unicode="&#x22;" horiz-adv-x="907" d="M193 1348h210l-43 -560h-122zM504 1348h211l-43 -560h-123z" />
<glyph unicode="#" horiz-adv-x="1132" d="M68 434l2 146h235l33 213h-211v145h235l64 410h149l-65 -410h217l66 410h147l-63 -410h190l-2 -145h-211l-33 -213h193l-2 -146h-213l-70 -434h-149l67 434h-215l-72 -434h-147l68 434h-213zM455 580h217l33 213h-218z" />
<glyph unicode="$" horiz-adv-x="1751" d="M68 924q0 252 241 370q184 90 465 90h41v183h154v-199q78 -25 143 -43q158 -45 223 -53q74 0 80 76h227v-430h-215q-55 127 -190 184q-82 37 -268 65v-286q113 0 184 -9q530 -61 530 -438q0 -401 -528 -467q-82 -10 -186 -10v-205h-154v211q-68 0 -164 39 q-211 86 -235 86q-80 0 -103 -88h-211v469h211q55 -176 248 -246q207 -45 254 -59v305h-33q-279 0 -467 88q-248 119 -247 367zM459 1036q0 -139 356 -139v283h-14q-20 0 -41 2q-301 0 -301 -146zM969 152q121 0 209 28q133 43 133 137q0 76 -170 111q-49 10 -172 18v-294z " />
<glyph unicode="%" horiz-adv-x="1832" d="M31 1004q0 164 116 260q109 92 275 92q164 0 272 -92q115 -98 115 -260t-119 -259q-111 -92 -274 -92q-160 0 -272.5 96.5t-112.5 254.5zM276 1010q0 -256 146 -256q139 -1 139 245q0 92 -26 162q-39 96 -117 96q-141 0 -142 -247zM373 18l962 1368l123 -86l-962 -1368z M1020 334q0 164 117 260q109 92 274 92q164 0 272 -92q115 -98 115 -260t-119 -258q-111 -92 -274 -92q-160 0 -272.5 96t-112.5 254zM1266 340q0 -256 145 -256q139 0 139 246q0 92 -26 162q-39 96 -117 96q-141 0 -141 -248z" />
<glyph unicode="&#x26;" horiz-adv-x="1970" d="M82 326q0 242 321 374q90 37 113 37q-106 147 -106 287q0 168 120 272q113 96 285 97q156 0 272 -90q129 -96 130 -248q0 -199 -220 -318l301 -305l27 33q55 68 55 113q0 57 -65 53l-39 -2v227h586v-225q-96 0 -139.5 -21.5t-110.5 -99.5l-182 -207q88 -98 159 -98 q96 0 97 151v21h196q2 -20 2 -35q0 -174 -82 -274q-90 -109 -262 -109q-190 0 -399 131q-80 -43 -142 -65q-182 -68 -358 -68q-213 0 -365 78q-195 98 -194 291zM518 381q0 -98 69.5 -162.5t168.5 -64.5q118 0 227 59q-59 53 -203 207q-18 18 -141 153q-121 -84 -121 -192z M756 1081q0 -78 116 -200q148 65 148 182q0 57 -43 99t-100 42q-53 0 -87 -34.5t-34 -88.5z" />
<glyph unicode="'" horiz-adv-x="454" d="M121 1348h211l-43 -560h-123z" />
<glyph unicode="(" horiz-adv-x="1050" d="M180 535q0 434 121 608q147 213 526 205l99 -2v-205q-274 0 -344 -121q-41 -72 -54 -268q-4 -145 -6 -291q-2 -39 -2 -76q0 -229 55 -328q74 -131 281 -131h43q18 2 27 2v-202l-99 -2q-375 -8 -522 200q-125 176 -125 611z" />
<glyph unicode=")" horiz-adv-x="1050" d="M125 -72q276 0 346 119q57 98 57 488q0 33 2 100t2 100q0 199 -61 293q-76 119 -258 119q-39 0 -88 -6v205l98 2q373 8 520 -201q125 -176 125 -612q0 -438 -110 -605q-137 -207 -533 -206h-61q-25 0 -39 2v202z" />
<glyph unicode="*" horiz-adv-x="1335" d="M160 1006q0 68 40 109.5t105 41.5q72 0 141 -57l166 -135q-27 66 -53 133q-43 113 -43 141q0 6 2 8q-2 8 -2 27q0 61 44 99t108 38q68 0 108.5 -45t40.5 -115l-94 -286l166 135q70 57 139 57q68 0 108 -41.5t40 -109.5t-49.5 -111t-116.5 -39l-250 12l178 -129 q88 -63 88 -143q0 -70 -42 -115t-112 -45q-109 0 -145 135l-59 220l-60 -220q-37 -135 -145 -135q-68 0 -112 46t-44 114q0 66 17 86q10 14 71 57l183 129l-252 -12q-68 -4 -117 39t-49 111z" />
<glyph unicode="+" horiz-adv-x="1122" d="M20 651v238h420v414h240v-414h418v-238h-418v-413h-240v413h-420z" />
<glyph unicode="," horiz-adv-x="626" d="M98 -236q70 49 95 74q43 43 90 121q-180 31 -181 197q0 94 57.5 150t151.5 56q104 0 164 -73q53 -68 53 -174q0 -248 -338 -471z" />
<glyph unicode="-" horiz-adv-x="698" d="M0 369v245h698v-245h-698z" />
<glyph unicode="." horiz-adv-x="626" d="M102 156q0 88 61.5 149.5t149.5 61.5q86 0 147.5 -59.5t61.5 -145.5q0 -92 -58 -152.5t-151 -60.5q-88 0 -149.5 59.5t-61.5 147.5z" />
<glyph unicode="/" horiz-adv-x="1388" d="M2 -276l940 1624h266l-942 -1624h-264z" />
<glyph unicode="0" d="M55 676q0 322 219 516q211 188 537 188q309 0 524 -196q224 -203 224 -508q0 -315 -224 -512q-213 -188 -534 -189q-315 0 -527 191q-219 199 -219 510zM530 686q0 -508 281 -508q268 0 268 514q0 174 -53 309q-72 184 -219 185q-160 0 -229 -182q-47 -127 -48 -318z" />
<glyph unicode="1" d="M315 901v254h39q164 0 224 16q115 35 149 148h305v-762q0 -301 244 -301h20l2 2v-258h-981v258q170 0 222 66q45 55 45 233v150q0 131 -70 170q-47 25 -199 24z" />
<glyph unicode="2" d="M162 0q45 289 112 391q76 115 316 225l125 58q145 66 176 92q80 66 80 180q0 106 -65.5 169t-172.5 63q-115 0 -198 -84q33 -31 47 -50q29 -37 28 -96q0 -78 -55 -130t-133 -52q-90 0 -151.5 61.5t-61.5 151.5q0 197 219 305q174 86 391 86q358 0 522 -170 q111 -115 111 -266q0 -233 -229 -342q-49 -23 -439 -125q-246 -63 -268 -180h479q219 0 219 170v26q0 2 -2 4h242v-487h-1292z" />
<glyph unicode="3" d="M152 350q0 92 58 155.5t148 63.5q82 0 144.5 -57t62.5 -139q0 -88 -78 -146q78 -74 201 -73q119 0 201 53q94 63 94 176q0 115 -98 170q-78 43 -201 43h-18q-2 0 -9 -2v197q20 -2 33 -3q283 0 283 199q0 111 -82 172q-74 55 -189 55q-117 0 -200 -69q76 -61 76 -144 q0 -86 -60.5 -140t-148.5 -54q-92 0 -150.5 60.5t-58.5 152.5q0 190 225 287q170 72 389 71q242 0 416 -71q240 -98 240 -306q0 -199 -213 -270q-66 -23 -216 -35q256 -41 340 -92q121 -74 121 -248q0 -207 -243 -313q-184 -80 -420 -80t-412 78q-236 104 -235 309z" />
<glyph unicode="4" d="M137 449v192l781 678h296v-678h263v-190h-263l-2 -43q-4 -94 60 -127q45 -23 151 -23h54v-258h-951v258h60q106 0 147 23q57 31 58 125v43h-654zM477 641h314v281z" />
<glyph unicode="5" d="M176 289q0 86 57.5 133t145.5 47q84 0 142.5 -43t58.5 -123q0 -57 -45 -102q76 -63 174 -64q109 0 183.5 74t74.5 182q0 113 -71 184.5t-183 71.5q-115 0 -209 -90h-242v760h1065v-289h-823v-225q63 27 129 55q92 29 246 29q238 0 385 -101q172 -117 172 -344 q0 -256 -230 -383q-184 -100 -463 -100q-199 0 -356 66q-211 90 -211 262z" />
<glyph unicode="6" d="M104 678q0 336 234 528q219 180 561 180q193 0 328 -47q201 -70 200 -225q0 -82 -63 -127q-55 -39 -141 -39q-74 0 -129 31q-70 39 -70 106q0 37 35 64q-74 74 -182 74q-295 0 -295 -369v-37q0 -6 2 -14q162 117 377 117q221 0 376 -115q172 -127 172 -342 q0 -240 -225 -375q-190 -117 -444 -117q-332 0 -531 187q-205 190 -205 520zM580 451q0 -113 57 -193q66 -90 172 -90q102 0 168 88q61 80 61 186q0 113 -59 191q-66 88 -174 88q-102 0 -168 -86q-57 -78 -57 -184z" />
<glyph unicode="7" d="M160 805v514h1296v-244q-295 -250 -381 -614q-18 -76 -22 -121l-11 -102q-27 -270 -233 -271q-106 0 -166 72q-57 66 -57 174q0 104 32 190q53 139 177 273l338 366h-492q-135 0 -183 -37.5t-55 -162.5l-2 -37h-241z" />
<glyph unicode="8" d="M111 342q0 205 233 293q74 29 236 49q-207 35 -285 78q-137 76 -137 248q0 207 233 303q168 70 408 69q252 0 424 -69q242 -98 241 -314q0 -178 -213 -264q-72 -29 -213 -51q158 -20 232 -49q233 -90 233 -297q0 -209 -252 -303q-176 -68 -424 -68q-260 0 -442 64 q-274 96 -274 311zM575 367q0 -98 62.5 -162t161.5 -64q96 0 164.5 69t68.5 165q0 92 -68.5 158.5t-160.5 66.5q-96 0 -162 -68.5t-66 -164.5zM590 991q0 -92 62.5 -157.5t154.5 -65.5q90 0 154.5 63.5t64.5 153.5q0 92 -64.5 158.5t-156.5 66.5q-96 0 -155.5 -61.5 t-59.5 -157.5z" />
<glyph unicode="9" d="M104 893q0 250 226 383q186 111 444 110q334 0 533 -186q202 -192 202 -522q0 -338 -233 -528q-217 -178 -561 -179q-195 0 -328 45q-201 70 -201 226q0 164 205 164q78 0 131 -31q66 -37 66 -109q0 -35 -31 -59q68 -74 180 -74q154 0 230 109q66 94 65 252q0 27 -2 43 q0 8 -2 16q-152 -119 -375 -119q-221 0 -377 117q-172 129 -172 342zM578 911q0 -113 59 -192q66 -86 174 -86q102 0 166 86q59 78 59 184q0 109 -59 191q-66 92 -170 92q-106 0 -170 -86q-59 -78 -59 -189z" />
<glyph unicode=":" horiz-adv-x="626" d="M102 156q0 88 61.5 149.5t149.5 61.5q86 0 147.5 -59.5t61.5 -145.5q0 -88 -60.5 -150.5t-148.5 -62.5t-149.5 59.5t-61.5 147.5zM102 735q0 88 61.5 147.5t149.5 59.5q86 0 147.5 -59.5t61.5 -145.5t-61.5 -148.5t-147.5 -62.5q-90 0 -150.5 59.5t-60.5 149.5z" />
<glyph unicode=";" horiz-adv-x="626" d="M98 -236q70 49 95 74q43 43 90 121q-180 31 -181 197q0 94 57.5 150t151.5 56q104 0 164 -73q53 -68 53 -174q0 -248 -338 -471zM102 735q0 88 61.5 147.5t149.5 59.5q86 0 147.5 -59.5t61.5 -145.5t-61.5 -148.5t-147.5 -62.5q-90 0 -150.5 59.5t-60.5 149.5z" />
<glyph unicode="&#x3c;" horiz-adv-x="851" d="M45 688l457 313h286l-456 -313l456 -313h-286z" />
<glyph unicode="=" horiz-adv-x="1703" d="M254 307v234h1196v-234h-1196zM254 719v231h1196v-231h-1196z" />
<glyph unicode="&#x3e;" horiz-adv-x="851" d="M45 375l457 313l-457 313h287l456 -313l-456 -313h-287z" />
<glyph unicode="?" horiz-adv-x="1288" d="M82 1016q0 176 199 266q152 66 352 66q219 0 371 -74q200 -96 200 -291q0 -88 -39 -145q-31 -45 -139 -107l-131 -74q-90 -51 -111 -75q-29 -35 -28 -107h-271q0 88 15 129q18 55 75 105l105 88q82 70 82 166q0 80 -49 132t-129 52q-51 0 -101 -37q29 -57 29 -98 q0 -92 -59.5 -152.5t-151.5 -60.5q-98 0 -158.5 59.5t-60.5 157.5zM408 156q0 86 61 148.5t147 62.5q88 0 149.5 -58.5t61.5 -146.5q0 -90 -61 -151.5t-152 -61.5q-84 0 -145 61.5t-61 145.5z" />
<glyph unicode="@" horiz-adv-x="1990" d="M82 707q0 371 301 583q268 190 653 191q346 0 582 -142q287 -169 287 -493q0 -207 -150 -373q-156 -172 -360 -172q-86 0 -148 39q-68 43 -86 123q-168 -168 -424 -168q-332 0 -331 240q0 178 194 235q35 10 363 45q195 20 194 113q0 121 -192 121q-98 0 -158 -58 q23 -29 27 -59q0 -53 -54 -80q-43 -20 -100 -21q-197 0 -197 138q0 215 512 215q338 0 457 -113q78 -74 78 -244v-249q0 -68 55 -68q82 0 137 115q43 94 43 186q0 274 -231 422q-197 125 -487 125q-309 0 -533 -166q-246 -182 -246 -481t250 -482q223 -162 535 -161 q176 0 293.5 42t255.5 154h194q-193 -182 -330 -244q-164 -74 -430 -73q-391 0 -653 180q-301 205 -301 580zM842 575q0 -35 37 -55q31 -16 69 -16q215 0 215 221v25q0 2 -2 4q-35 -41 -186 -90q-133 -43 -133 -89z" />
<glyph unicode="A" horiz-adv-x="2045" d="M-47 0v258q143 0 223 59q61 45 146 185l509 846h406l512 -834q90 -145 186 -209q59 -39 158 -47v-258h-1061v258q115 0 144 4q94 16 94 80q0 31 -33 90h-637q-39 -45 -39 -78q0 -98 205 -98h27q4 0 10 2v-258h-850zM727 651h375l-195 307z" />
<glyph unicode="B" horiz-adv-x="2035" d="M78 0v258l51 2q172 6 220 56.5t48 240.5v295q0 131 -48 179t-220 54l-51 2v261h1306q252 0 377 -54q188 -78 189 -293q0 -195 -193 -282q-63 -29 -194 -49q428 -44 428 -353q0 -188 -146 -262q-106 -55 -319 -55h-1448zM872 258h363q242 0 242 152q0 137 -234 137h-371 v-289zM872 805h406q70 0 118 33.5t48 99.5q0 149 -249 149h-3h-320v-282z" />
<glyph unicode="C" horiz-adv-x="1882" d="M57 674q0 342 260 538q236 180 588 181q170 0 301 -37q90 -27 273 -80q68 0 82 72h258v-529h-256q-47 162 -185 248q-127 78 -303 78q-203 0 -344 -123q-147 -129 -147 -330q0 -211 157 -352q150 -135 365 -135q326 0 479 309h234q-147 -561 -858 -561q-375 0 -621 168 q-283 195 -283 553z" />
<glyph unicode="D" horiz-adv-x="2236" d="M78 0v258l53 2q160 6 203 43q65 56 65 248v6v299q0 94 -18 133q-25 57 -100 78q-53 14 -150 18l-53 2v261h1202q395 0 623 -144q274 -174 274 -549q0 -342 -227 -510q-201 -145 -557 -145h-1315zM872 258h291q238 0 357 82q139 97 139 324q0 240 -150 340 q-122 83 -370 83h-6h-261v-829z" />
<glyph unicode="E" horiz-adv-x="1982" d="M78 1087v261h1812v-519h-258q-18 176 -94 226q-48 32 -192 32h-9h-463v-284h121q104 0 146 31q49 37 49 137h266v-588h-264q0 109 -74 143q-47 23 -172 23h-72v-289h455q164 0 232.5 56.5t68.5 218.5h260v-535h-1810v258l51 2q170 6 211 47q55 55 55 250v295 q0 154 -75 195q-57 35 -191 38z" />
<glyph unicode="F" horiz-adv-x="1925" d="M76 0v258l49 2q172 8 217 53q51 53 51 244v234q0 184 -47 239q-41 47 -221 55l-49 2v261h1804v-525h-258l-18 123q-8 57 -43 88q-61 53 -222 53h-471v-280h148q170 0 170 160h262v-590h-260q0 115 -64 149q-43 23 -172 23h-84v-49q0 -139 54 -189q45 -45 213 -51l51 -2 v-258h-1110z" />
<glyph unicode="G" horiz-adv-x="2134" d="M57 684q0 328 242 528q225 190 559 191q139 0 320 -45q2 0 313 -90q49 0 72 80h254v-523h-252q-49 162 -185 248q-125 78 -301 78q-205 0 -346 -133q-147 -135 -147 -338q0 -197 140 -335t337 -138q88 0 162 24q106 35 106 105q0 59 -49 84q-33 14 -182 22l-39 2v258 h1020v-256q-154 0 -203 -34q-61 -43 -61 -187v-225h-295l-82 127q-262 -162 -559 -162q-342 0 -574 187q-250 201 -250 532z" />
<glyph unicode="H" horiz-adv-x="2445" d="M78 0v258l51 2q168 6 203 37q65 54 65 254v6v295q0 174 -116 213q-55 16 -152 20l-51 2v261h1067v-261q-6 2 -12 3q-12 2 -37 2q-227 0 -228 -242q0 -27 2 -43h703q4 18 4 39v28q0 215 -236 216h-30q-4 0 -13 -3v261h1069v-261l-51 -2q-152 -6 -192 -38q-76 -61 -76 -256 v-234q0 -184 35 -231q43 -57 233 -66l51 -2v-258h-1069v258q12 -2 25 -2h23q229 0 229 256v25q0 2 -2 4h-703q-6 -31 -6 -58q0 -225 230 -225h30q14 2 21 2v-260h-1067z" />
<glyph unicode="I" horiz-adv-x="1298" d="M96 0v258l49 2q172 8 219.5 56.5t47.5 240.5v338q0 119 -82 160q-49 25 -185 30l-49 2v261h1104v-261l-45 -2q-158 -8 -188 -28q-78 -55 -78 -266v-234q0 -193 53 -248q39 -41 213 -49l45 -2v-258h-1104z" />
<glyph unicode="J" horiz-adv-x="1468" d="M47 326q0 98 65.5 166.5t163.5 68.5q84 0 143.5 -58.5t59.5 -142.5q0 -104 -94 -137q31 -76 107 -76q152 0 151 215v490q0 131 -47 178t-221 55l-45 2v261h1108v-261l-52 -2q-152 -6 -192 -38q-76 -61 -76 -256v-426q0 -86 -18 -144q-45 -137 -230 -201 q-137 -49 -315 -49q-188 0 -334 82q-174 98 -174 273z" />
<glyph unicode="K" horiz-adv-x="2207" d="M78 0v258l49 2q170 6 219 58.5t49 238.5v234q0 184 -43 235t-225 59l-49 2v261h977v-261q-39 0 -58 -4q-127 -29 -127 -153v-176l338 184q90 49 90 90q0 43 -98 55l-35 4v261h953v-261q-162 -18 -324 -110l-276 -160l333 -389q74 -86 84 -94q94 -76 236 -76v-258h-1004 v258q66 4 86 8q88 16 88 56q0 16 -16 34q-2 4 -104 125q-29 33 -103 119l-248 -143v-60q0 -76 58 -108q35 -20 127 -31v-258h-977z" />
<glyph unicode="L" horiz-adv-x="1826" d="M78 0v258l49 2q170 6 211 47q55 55 55 250v295q0 94 -14 131q-20 57 -92 80q-57 18 -160 22l-49 2v261h1106v-261l-47 -2q-156 -6 -195 -38q-72 -57 -72 -256v-533h371q154 0 207 53.5t72 210.5h270v-522h-1712z" />
<glyph unicode="M" horiz-adv-x="2711" d="M78 0v258l49 2q164 6 201 39q65 56 65 252v6v295q0 90 -16 131q-25 57 -96 80q-55 18 -154 22l-49 2v261h831l465 -707l375 707h885v-261l-49 -2q-156 -6 -195 -38q-72 -59 -72 -256v-234q0 -193 45 -244q37 -45 222 -53l49 -2v-258h-1006v258q127 0 170 35t43 158v462 l-481 -913h-127l-551 834v-312q0 -147 33 -198q43 -66 178 -66h39v-258h-854z" />
<glyph unicode="N" horiz-adv-x="2441" d="M78 0v258h49q178 0 227 68q39 53 39 231v305q0 111 -28 150q-54 75 -233 75h-5h-49v261h721l993 -758v282q0 16 2 35q0 180 -268 180h-53v261h919v-261h-43q-184 0 -233 -71q-35 -49 -35 -225v-818h-262l-1141 861v-277q0 -172 45 -231q53 -68 219 -68h49v-258h-913z" />
<glyph unicode="O" horiz-adv-x="2185" d="M59 674q0 375 347 571q283 158 688 158q403 0 686 -164q346 -198 346 -573t-338 -568q-270 -153 -673 -153h-5q-414 0 -696 155q-354 195 -355 574zM580 674q0 -219 151 -355q145 -131 367 -131q209 0 354 138.5t145 347.5t-143 347t-354 138q-221 0 -367 -131 q-154 -137 -153 -354z" />
<glyph unicode="P" horiz-adv-x="1900" d="M78 0v258h47q184 0 233 70q35 49 35 229v295q0 106 -28 149q-57 86 -240 86h-47v261h1243q260 0 387 -84q158 -101 158 -349q0 -413 -542 -413h-3h-455q0 -145 48.5 -194.5t193.5 -49.5h80v-258h-1110zM866 760h277q217 0 217 164q0 163 -214 163h-3h-277v-327z" />
<glyph unicode="Q" horiz-adv-x="2195" d="M59 670q0 373 344 569q281 162 682 162q412 0 697 -158q354 -196 354 -575q0 -231 -143 -404q-127 -156 -357 -246q70 -137 160 -137q92 0 105 119h182q-33 -143 -121 -227q-94 -92 -236 -92q-233 0 -378 274q-121 -12 -232 -12q-422 0 -702 151q-354 190 -355 576z M586 670q0 -143 53 -234q41 -70 149 -157q23 121 106 193.5t206 72.5q133 0 223 -78q59 -51 117 -160q170 121 170 363q0 213 -152 352q-147 133 -362 133q-213 0 -361.5 -137t-148.5 -348zM911 205q57 -27 152 -27q78 1 135 15q-29 80 -51 110q-39 51 -105 51 q-80 0 -112 -73q-10 -20 -19 -76z" />
<glyph unicode="R" horiz-adv-x="2256" d="M78 0v258l45 2q174 8 217 53q51 53 51 244v234q0 176 -45 231t-223 63l-45 2v261h1366q547 0 547 -349q0 -199 -199 -286q-66 -29 -199 -47q330 0 330 -275v-92q0 -98 57 -98q43 0 56 24q8 16 8 66v151h162v-174q0 -156 -109 -235q-96 -72 -258 -72q-274 0 -350 156 q-12 94 -27 188q-18 119 -59 178q-53 80 -156 80l-379 2v-47q0 -160 50 -209q41 -41 217 -49l47 -2v-258h-1104zM866 825h353q249 1 249 138q0 124 -201 124h-3h-398v-262z" />
<glyph unicode="S" horiz-adv-x="1763" d="M84 936q0 236 217 358q178 102 432 103q137 0 295 -41l322 -84q72 0 71 76h221v-439h-219q-49 102 -178 181q-178 106 -432 106q-106 0 -186 -29q-117 -39 -117 -125q0 -94 123 -108l659 -80q387 -82 387 -442q0 -244 -198 -363q-162 -98 -422 -98q-168 0 -332 43 q-59 14 -315 100q-94 0 -107 -94h-209v481h223q39 -168 248 -256q164 -69 361 -69h6q117 0 205 26q131 41 131 133q0 53 -41 74q-59 31 -240 53l-299 39q-342 45 -469 144q-137 102 -137 311z" />
<glyph unicode="T" horiz-adv-x="1873" d="M53 817v531h1768v-531h-262q0 139 -43 195q-58 75 -228 75h-4h-106v-530q0 -186 49 -242q43 -49 213 -55l59 -2v-258h-1124v258l57 2q174 6 220 57.5t46 239.5v530h-108q-156 0 -215.5 -58t-59.5 -212h-262z" />
<glyph unicode="U" horiz-adv-x="2324" d="M47 1087v261h1118v-261l-51 -2q-158 -6 -199 -43q-67 -58 -67 -245v-6v-89q0 -233 92 -344q99 -120 326 -120h4q418 0 418 385v270q0 119 -80 160q-51 27 -187 32l-45 2v261h901v-261l-39 -2q-158 -8 -198 -45q-68 -59 -68 -249v-234q0 -311 -256 -471 q-213 -133 -542 -133q-809 0 -809 694v256q0 119 -76 156q-45 20 -191 26z" />
<glyph unicode="V" horiz-adv-x="1984" d="M-27 1087v261h1074v-261h-33q-180 0 -180 -110q0 -57 47 -141l225 -406l219 397q47 86 47 146q0 114 -181 114h-3h-31v261h856v-261q-123 0 -193.5 -40.5t-129.5 -147.5l-492 -899h-403l-459 848q-72 135 -178 194q-63 37 -185 45z" />
<glyph unicode="W" horiz-adv-x="2768" d="M-27 1087v261h1086v-261q-268 0 -268 -112q0 -39 26 -98l168 -379l371 850h268l379 -850l154 358q25 57 24 98q0 133 -262 133v261h877v-261h-27q-197 0 -295 -229l-369 -858h-411l-303 698l-299 -698h-414l-352 791q-76 172 -148 231q-31 25 -102 47z" />
<glyph unicode="X" horiz-adv-x="2109" d="M31 0v258q135 0 217 25q150 45 358 206l209 162l-471 357q-105 79 -270 79h-4v261h1036v-261q-104 0 -105 -40q0 -8 15 -23l139 -113l94 70q61 45 62 74q0 32 -101 32h-6v261h809v-261q-133 0 -270 -51q-143 -53 -234 -143l-166 -129l537 -408q102 -78 201 -98v-258 h-1020v258h20q14 -2 31 -2q100 0 100 51q0 41 -82 103l-124 94l-172 -131q-29 -27 -33 -56q0 -59 145 -59v-258h-915z" />
<glyph unicode="Y" horiz-adv-x="1914" d="M18 1087v261h1016v-261q-23 2 -35 3q-106 0 -106 -70q0 -18 16 -45l191 -219l164 178q39 43 39 78q0 53 -76 69q-18 4 -76 6v261h743v-261q-96 0 -157 -38q-37 -25 -119 -115l-387 -428q0 -150 53 -197q45 -43 213 -49l53 -2v-258h-1120v258l47 2q166 8 213 49 q55 47 55 197l-372 395q-86 92 -119 115q-99 71 -232 71h-4z" />
<glyph unicode="Z" horiz-adv-x="1826" d="M78 0v258l942 829h-428q-180 0 -236 -133q-18 -45 -20 -135h-258v529h1630v-297l-899 -793h467q127 0 172 74q27 45 43 196h258v-528h-1671z" />
<glyph unicode="[" horiz-adv-x="1050" d="M240 -276v1626h667v-220h-291v-1204h291v-202h-667z" />
<glyph unicode="\" horiz-adv-x="1388" d="M0 1348h266l942 -1624h-266z" />
<glyph unicode="]" horiz-adv-x="1050" d="M141 1143v205h672v-1627h-670v218h291v1204h-293z" />
<glyph unicode="^" horiz-adv-x="1024" d="M23 754l393 594h190l393 -594h-182l-307 446l-305 -446h-182z" />
<glyph unicode="_" horiz-adv-x="1021" d="M0 -143h1020v-195h-1020v195z" />
<glyph unicode="`" horiz-adv-x="681" d="M80 1505h450l82 -342h-174z" />
<glyph unicode="a" horiz-adv-x="1691" d="M55 242q0 213 230 282q51 16 426 56q229 25 229 125q0 74 -80 110q-61 29 -145 29q-117 0 -189 -66q35 -43 35 -72q0 -57 -65 -92q-51 -26 -114 -26h-5q-90 0 -154 35q-78 45 -78 129q0 254 605 254q628 0 628 -371v-6q0 -14 -2 -31v-14v-293q0 -63 2 -70q8 -31 52 -31 q57 0 57 78l2 162h168v-174q0 -20 2 -39q0 -129 -51 -180q-76 -76 -303 -76q-150 0 -226 29q-113 45 -135 166q-199 -199 -500 -199q-389 0 -389 285zM569 289q0 -43 45 -66q35 -18 82 -18q248 0 248 295q-41 -51 -221 -105q-154 -45 -154 -106z" />
<glyph unicode="b" horiz-adv-x="1591" d="M-23 1106v242h637v-484q182 125 377 125q229 0 386 -146.5t157 -373.5t-148.5 -370.5t-375.5 -143.5q-180 0 -324 86q-47 29 -106 86l-109 -127h-291v907q0 106 -14 137q-25 47 -117 56zM610 473q0 -100 62.5 -164.5t163.5 -64.5q100 0 162.5 64.5t62.5 164.5 t-62.5 164.5t-162.5 64.5q-96 0 -161 -66.5t-65 -162.5z" />
<glyph unicode="c" horiz-adv-x="1384" d="M55 487q0 254 224 396q190 123 458 123q211 0 375 -72q219 -94 219 -277q0 -92 -58.5 -142t-150.5 -50q-82 0 -145 39q-76 45 -76 121q0 100 107 118q-59 78 -177 78q-127 0 -204 -98q-70 -90 -70 -221q0 -139 80 -230q84 -96 221 -96q166 0 236 137h241 q-35 -184 -223 -278q-156 -78 -364 -78q-272 0 -467 127q-225 145 -226 403z" />
<glyph unicode="d" horiz-adv-x="1660" d="M55 477q0 219 155 373t374 154q190 0 311 -84q39 -27 84 -84v71q0 125 -36 162t-161 37v242h633v-910q0 -127 31 -159q25 -27 162 -35l37 -2v-242h-664v121q-37 -55 -78 -84q-121 -86 -305 -86q-229 0 -386 149.5t-157 376.5zM535 475q0 -102 63.5 -165.5t165.5 -63.5 q104 0 165.5 62.5t61.5 166.5q0 100 -63.5 163.5t-163.5 63.5q-102 0 -165.5 -62t-63.5 -165z" />
<glyph unicode="e" horiz-adv-x="1484" d="M55 485q0 260 228 400q188 116 462 116h5q350 0 505 -122q175 -140 175 -478h-863q68 -235 324 -235h2q160 0 264 115h254q-98 -186 -260 -265q-137 -65 -362 -65h-7q-289 0 -487 121q-240 143 -240 413zM547 592h446q-25 217 -215 217q-195 0 -231 -217z" />
<glyph unicode="f" horiz-adv-x="1134" d="M66 0v242l51 2q127 4 159.5 36.5t32.5 157.5v285h-243v240h243q0 415 542 415h3q135 0 231 -37q136 -50 136 -165q0 -74 -64 -117q-55 -39 -131 -39q-66 0 -115 29q-57 35 -57 96q0 39 29 69q-27 10 -45 11q-90 0 -90 -140v-120h286v-242h-286v-283q0 -121 26 -153 q33 -41 164 -43l96 -2v-242h-968z" />
<glyph unicode="g" horiz-adv-x="1826" d="M43 -188q0 100 147 149q-127 78 -127 205q0 152 166 225q-135 92 -135 244q0 207 238 301q170 68 413 68q285 0 453 -80q55 -27 113 -82q119 166 276 166q106 0 172 -67t66 -173q0 -88 -56.5 -149.5t-144.5 -61.5q-66 0 -111 35q-51 37 -51 100q-2 12 0 29q2 14 4 22 q-53 -8 -90 -49q14 -80 15 -90q0 -199 -232 -282q-156 -55 -397 -56q-127 0 -260 29q-18 4 -137 33q-29 0 -46.5 -23.5t-17.5 -52.5q0 -63 82 -80q33 -8 129 -8h733q188 0 285 -41q143 -61 143 -223q0 -86 -28 -138q-121 -215 -777 -215q-545 0 -725 97q-100 53 -100 168z M266 -203q10 -104 565 -104q482 0 482 96q0 33 -74 51q-51 12 -100 13h-684q-115 0 -115 2h2q-76 -8 -76 -58zM559 637q0 -78 56.5 -130t134.5 -52t132 52t54 130q0 82 -52.5 132t-133.5 50q-80 0 -135.5 -51t-55.5 -131z" />
<glyph unicode="h" horiz-adv-x="1927" d="M74 1106v242h684v-551q177 202 462 202h3q440 0 440 -424v-137q0 -121 33 -157q25 -31 159 -37l46 -2v-242h-859v242q115 0 150 38.5t35 157.5v58q0 221 -226 221q-111 0 -177 -65.5t-66 -176.5v-37q0 -115 40 -155.5t152 -40.5v-242h-874v242l53 2q127 4 160 36.5 t33 157.5v469q0 125 -33 162q-31 31 -160 35z" />
<glyph unicode="i" horiz-adv-x="1017" d="M74 723v240h684v-525q0 -127 30 -159q23 -29 158 -35l45 -2v-242h-915v242l55 2q127 4 160 36.5t33 157.5v86q0 145 -58 174q-41 18 -135 23zM311 1229q0 88 63.5 141t151.5 53q94 0 159 -52t65 -144q0 -88 -63.5 -139.5t-151.5 -51.5q-92 0 -158 51.5t-66 141.5z" />
<glyph unicode="j" horiz-adv-x="999" d="M-100 -162q0 186 170 187q61 0 107 -43t46 -105q0 -82 -78 -123q35 -59 82 -59q72 0 88 115q4 23 4 165v549q0 135 -43 164t-149 33l-59 2v240h690v-994q0 -16 2 -32q0 -391 -467 -392q-158 0 -266 66q-127 78 -127 227zM293 1229q0 88 63.5 141t151.5 53q94 0 158.5 -52 t64.5 -144q0 -88 -63.5 -139.5t-151.5 -51.5q-92 0 -157.5 51.5t-65.5 141.5z" />
<glyph unicode="k" horiz-adv-x="1712" d="M76 0v242h57q115 0 153 41t38 155v469q0 119 -37 159t-154 40h-57v242h686v-846l182 112q74 45 74 86q0 35 -53 48q-16 2 -54 4v211h709v-240h-27q-102 0 -196 -57l-117 -72l190 -242q57 -74 93 -92t129 -18v-242h-768v227l63 2q66 2 66 43q0 20 -17 37l-92 117 l-182 -121v-305h-686z" />
<glyph unicode="l" horiz-adv-x="1028" d="M74 0v242l61 2q125 4 158 36.5t33 157.5v469q0 125 -31 162q-29 31 -160 35l-61 2v242h690l2 -910q0 -121 33 -157q27 -31 157 -37l50 -2v-242h-932z" />
<glyph unicode="m" horiz-adv-x="2672" d="M74 0v242l61 2q125 4 158 36.5t33 157.5v86q0 125 -30 159t-161 38l-61 2v240h692v-166q92 106 131 133q115 78 305 78q188 0 301 -105q37 -35 76 -106q55 70 100 102q139 102 334 102q418 0 418 -389v-174q0 -98 18 -135q25 -53 111 -57l92 -4v-242h-813v242 q100 0 131 41q25 33 25 139v96q0 111 -39 154t-148 43q-213 0 -213 -213v-70q0 -102 27 -139q31 -43 129 -51v-242h-743v242q96 0 127 39q26 32 26 126v7v80q0 115 -31 161q-41 61 -147 62q-217 0 -217 -238v-73q0 -98 28.5 -131t125.5 -33v-242h-846z" />
<glyph unicode="n" horiz-adv-x="1921" d="M74 0v242l55 2q127 4 160 36.5t33 157.5v86q0 121 -32 157t-161 40l-55 2v240h686v-162q72 86 149 129q121 67 307 67h5q233 0 335.5 -111.5t102.5 -346.5v-101q0 -121 33 -157q25 -31 157 -37l45 -2v-242h-854v242q106 0 145.5 30.5t39.5 133.5v96q0 215 -213 215 q-252 0 -252 -262v-76q0 -84 55 -115q39 -22 125 -22h8v-242h-874z" />
<glyph unicode="o" horiz-adv-x="1630" d="M55 477q0 279 256 416q203 111 506 111q293 0 498 -111q258 -138 258 -406q0 -283 -256 -421q-203 -113 -510 -113q-303 0 -502 108q-250 137 -250 416zM543 477q0 -131 70.5 -215t197.5 -84q125 0 196.5 86t71.5 213q0 129 -67 211q-74 88 -201 88q-131 0 -199.5 -83 t-68.5 -216z" />
<glyph unicode="p" horiz-adv-x="1689" d="M35 723v240h690v-138q123 170 365 170q236 0 390 -143.5t154 -376.5q0 -221 -152.5 -370.5t-373.5 -149.5q-240 0 -383 168v-123q0 -123 30.5 -158t157.5 -39l64 -2v-239h-940v239l57 2q123 4 157 38t34 159v524q0 125 -30 159t-161 38zM713 479q0 -102 61.5 -165.5 t163.5 -63.5q100 0 163.5 64.5t63.5 164.5q0 102 -62.5 166t-164.5 64t-163.5 -63.5t-61.5 -166.5z" />
<glyph unicode="q" horiz-adv-x="1671" d="M55 475q0 231 156 375.5t389 144.5q236 0 365 -172v140h690v-240l-60 -2q-123 -4 -156.5 -38t-33.5 -159v-524q0 -125 35 -162q29 -31 155 -35l60 -2v-239h-940v239l61 2q121 4 155 38t34 159v123q-141 -168 -385 -168q-219 0 -372 150.5t-153 369.5zM524 479 q0 -102 62.5 -165.5t165.5 -63.5q102 0 162.5 63.5t60.5 165.5t-60.5 166t-162.5 64t-165 -63.5t-63 -166.5z" />
<glyph unicode="r" horiz-adv-x="1417" d="M63 0v242l54 2q127 4 159.5 36.5t32.5 157.5v86q0 125 -34.5 159t-157.5 38l-54 2v240h670v-236q152 270 402 270q113 0 189.5 -73.5t76.5 -184.5q0 -94 -61.5 -158.5t-155.5 -64.5q-176 0 -176 184q-16 4 -45 5q-106 0 -170 -97q-53 -84 -54 -196q0 -113 74 -148 q43 -22 167 -22h11v-242h-928z" />
<glyph unicode="s" horiz-adv-x="1380" d="M96 649q0 197 195 285q139 65 357 65h7q55 0 236 -22q90 -10 162 -23l192 11v-306h-174q-96 180 -360 181q-68 0 -123 -17q-80 -25 -80 -78q0 -43 172 -75l240 -45q168 -31 231 -68q141 -80 141 -248q0 -193 -196 -282q-147 -68 -365 -68q-100 0 -254 41q-41 10 -61 10 q-8 0 -35 -5t-62 -5l-213 -2v299h189q115 -193 391 -193q166 0 166 97q0 55 -158 86l-245 47q-195 37 -269 104q-84 76 -84 211z" />
<glyph unicode="t" horiz-adv-x="1019" d="M-4 723v240q326 0 326 315h317v-315h279v-240h-279v-414v-84q8 -43 55 -43q55 0 56 80l-2 170h170v-190q0 -276 -355 -277q-178 0 -256 62q-106 84 -106 309v387h-205z" />
<glyph unicode="u" horiz-adv-x="1855" d="M16 723v240h654v-453q0 -133 45 -195q52 -75 175 -75h3q115 0 183.5 69.5t68.5 184.5v30q0 127 -32 159t-161 38l-43 2v240h674v-523q0 -119 31 -155.5t162 -40.5l55 -2v-242h-686v160q-100 -100 -164 -135q-119 -66 -303 -66q-233 0 -340 104.5t-107 339.5v121 q0 106 -25.5 146.5t-105.5 46.5z" />
<glyph unicode="v" horiz-adv-x="1681" d="M-37 723v240h920v-240q-51 -4 -66 -8q-67 -16 -67 -65q0 -30 22 -66l158 -260l143 219q41 63 41 100q0 80 -143 80v240h708v-240q-119 0 -190 -53q-51 -41 -127 -158l-330 -512h-403l-381 590q-86 133 -285 133z" />
<glyph unicode="w" horiz-adv-x="2263" d="M-37 723v240h862v-240q-172 0 -172 -76q0 -31 31 -90l117 -225l327 631h187l317 -631l111 219q29 57 29 92q0 80 -162 80v240h653v-240q-98 0 -154 -55q-33 -33 -92 -146l-274 -522h-428l-203 393l-194 -393h-426l-297 559q-53 98 -117 137q-41 25 -115 27z" />
<glyph unicode="x" horiz-adv-x="1691" d="M35 0v242q84 0 133 18q43 14 119 68l239 168l-243 141l-90 57q-63 33 -142 33l2 236h809v-179q-37 -4 -49 -8q-49 -14 -49 -39q0 -31 72 -69l82 -45l88 63q45 33 45 55q0 31 -72 41q-10 0 -33 2v179h647v-240q-104 0 -149 -18q-23 -10 -129 -82l-187 -127l338 -201 q90 -53 189 -53v-242h-852v201l45 6q47 12 47 35q0 27 -59 63l-105 66l-84 -62q-55 -41 -55 -67q0 -25 47 -35q4 0 49 -6v-201h-653z" />
<glyph unicode="y" horiz-adv-x="1673" d="M-16 723v240h911v-240q-59 0 -82 -10q-39 -14 -39 -64q0 -41 64 -125l123 -162l106 156q55 80 55 131q0 76 -110 76h-27q-2 0 -4 -2v240h711v-240h-31q-174 0 -283 -176l-372 -602q-121 -197 -191 -260q-143 -133 -358 -134q-160 0 -271 60q-137 74 -137 219 q0 82 53.5 135t135.5 53q80 0 137 -51t57 -131q0 -27 -12 -57q29 -14 59 -15q82 0 150 76q41 43 98 146l-461 602q-104 135 -282 135z" />
<glyph unicode="z" horiz-adv-x="1382" d="M80 0v242l602 481h-233q-94 0 -129 -32t-48 -126h-192v398h1216v-240l-594 -481h252q90 0 128 35.5t38 123.5h203v-401h-1243z" />
<glyph unicode="{" horiz-adv-x="843" d="M59 674q106 27 144 96q31 57 30 176v461q0 178 95 256q76 63 233 74h293q-104 -33 -141 -103q-31 -57 -31 -180v-463q0 -143 -31 -203q-39 -80 -162 -110q123 -35 164 -129q29 -66 29 -217v-428q0 -121 31 -176q37 -70 141 -101q-397 0 -504 60q-117 66 -117 307v407 q0 127 -26 174q-33 59 -148 99z" />
<glyph unicode="|" horiz-adv-x="600" d="M139 -377v2142h301v-2142h-301z" />
<glyph unicode="}" horiz-adv-x="843" d="M-10 -373q106 27 145 99q29 55 29 178v428q0 150 29 217q41 92 163 129q-125 31 -163 110q-29 57 -29 203v463q0 121 -31 178q-37 72 -143 105q408 0 506 -47q117 -55 116 -283v-461q0 -117 33 -174q37 -65 141 -98q-109 -35 -143 -96q-31 -53 -31 -177v-407 q0 -188 -88 -275q-74 -72 -227 -88q-49 -4 -307 -4z" />
<glyph unicode="~" horiz-adv-x="1024" d="M4 1114q139 240 285 240q51 0 227 -73t211 -73q94 0 193 170l96 -100q-66 -109 -113 -154q-76 -78 -166 -77q-72 0 -240.5 72.5t-201.5 72.5q-63 0 -119 -62q-23 -25 -78 -116z" />
<glyph unicode="&#xa1;" horiz-adv-x="622" d="M80 145q0 18 1 29.5t7 36.5l125 577h203l112 -565q4 -23 7 -45l2 -33q0 -106 -59.5 -167.5t-166.5 -61.5q-102 0 -166.5 63.5t-64.5 165.5zM98 1102q0 90 60.5 151.5t150.5 61.5q88 0 148.5 -59.5t60.5 -147.5t-61.5 -149.5t-149.5 -61.5q-86 0 -147.5 59.5t-61.5 145.5z " />
<glyph unicode="&#xa2;" horiz-adv-x="1423" d="M68 659q0 219 163 361q145 125 375 156v256h176v-246q188 0 355 -78q209 -98 209 -268q0 -193 -222 -193q-82 0 -139 39q-68 43 -67 121q0 84 106 117q-70 76 -180 75q-129 0 -203 -94q-70 -86 -70 -219q0 -141 78 -235q84 -100 223 -101q172 0 238 142h244 q-68 -256 -324 -328q-82 -23 -192 -27l-56 -2v-252h-174v262q-229 45 -370 162q-170 137 -170 352z" />
<glyph unicode="&#xa3;" horiz-adv-x="1810" d="M68 0q31 193 153.5 298t317.5 105q27 0 168 -14q66 -6 137 -16q6 31 6 55q0 90 -166 184h-539v125h342q-250 115 -249 312q0 182 178 272q139 70 340 70q137 0 258 -27q279 -61 289 -61q37 0 36 45h242v-449h-225q0 156 -131 242q-111 72 -277 71q-80 0 -135 -28 q-68 -37 -68 -111q0 -55 84 -121q238 -184 256 -215h426v-123h-393q6 -18 6 -39q0 -59 -36.5 -128.5t-83.5 -112.5q233 -80 348 -80q127 0 159 119h232q-80 -420 -559 -420q-133 0 -314 43q-393 94 -424 94q-117 0 -149 -90h-229z" />
<glyph unicode="&#xa4;" horiz-adv-x="1239" d="M53 449l197 198q-66 100 -66 230q0 133 66 223l-197 200l133 134l199 -197q102 68 238 68q131 0 233 -68l199 197l133 -134l-197 -200q35 -53 43 -76q23 -59 23 -150q0 -121 -66 -227l197 -198l-133 -136l-199 199q-98 -70 -233 -70q-129 0 -238 70l-199 -199zM377 874 q0 -96 74.5 -168.5t171.5 -72.5q106 0 173.5 66t67.5 175q0 104 -68.5 172t-172.5 68t-175 -67.5t-71 -172.5z" />
<glyph unicode="&#xa5;" horiz-adv-x="1914" d="M18 1087v261h1016v-261q-29 -2 -45 -2q-104 -12 -104 -59q0 -31 33 -63h368q18 29 19 55q0 47 -76 63q-18 4 -78 6v261h743v-261q-88 0 -141 -28q-43 -23 -111 -96h213v-107h-307l-127 -139h434v-107h-530l-94 -104v-6q-4 -23 -4 -37q0 -119 98 -168q63 -31 172 -35 l53 -2v-258h-1120v258l47 2q168 8 228 74q45 49 45 129q0 18 -2 31q0 6 -3 12l-98 104h-506v107h406l-131 139h-275v107h172q-72 72 -92 86q-55 39 -203 38zM1006 856l94 -100l92 100h-186z" />
<glyph unicode="&#xa6;" horiz-adv-x="1021" d="M365 -344v747h299v-747h-299zM365 659v746h299v-746h-299z" />
<glyph unicode="&#xa7;" horiz-adv-x="1335" d="M154 37q0 80 44 128t121 48q66 0 108 -38t42 -101q0 -82 -68 -113q72 -78 201 -78q195 0 195 113q0 49 -64 84l-315 168q-154 82 -185 119q-61 74 -61 182q0 190 190 272q-160 102 -159 254q0 166 151 258q127 78 305 78q154 0 281 -53q166 -72 166 -205q0 -63 -43 -100 t-109 -37q-61 0 -100 31q-45 33 -45 92q0 41 25 71q-66 39 -152 39q-168 0 -168 -92q0 -45 119 -108l340 -183q209 -112 209 -276q0 -174 -191 -266q152 -106 152 -250q0 -182 -158 -287q-135 -88 -328 -88q-178 0 -325 78q-178 96 -178 260zM475 647q0 -33 170 -127 q55 -31 170 -88q49 39 49 74q-4 41 -170 129q-27 14 -166 84q-53 -43 -53 -72z" />
<glyph unicode="&#xa8;" horiz-adv-x="1024" d="M-10 1335q0 78 67 123q57 41 140 41q82 0 139 -41q65 -45 65 -123q0 -80 -60 -122t-144 -42t-142 39q-66 45 -65 125zM643 1335q0 76 66 123q59 41 139 41q82 0 139 -41q66 -45 66 -123q0 -80 -66 -125q-57 -39 -141 -39t-139 39q-63 45 -64 125z" />
<glyph unicode="&#xa9;" horiz-adv-x="1921" d="M47 866q0 379 266.5 639t644.5 260q379 0 645.5 -260t266.5 -639t-266.5 -641t-645.5 -262t-645 262t-266 641zM258 866q0 -293 203 -493.5t497 -200.5q293 0 498 200.5t205 493.5t-204 493t-499 200q-293 0 -496.5 -200t-203.5 -493zM395 838q0 207 158 325 q143 106 356 107q92 0 176 -21q20 -4 170 -49q41 0 52 43h155v-317h-155q-57 197 -295 196q-123 0 -210 -75.5t-87 -196.5q0 -129 92 -211t223 -82q199 0 291 186h141q-90 -338 -520 -337q-227 0 -375 100q-172 115 -172 332z" />
<glyph unicode="&#xaa;" horiz-adv-x="1126" d="M39 467v147h1048v-147h-1048zM68 889q0 115 137 164q49 16 258 45q137 20 137 67q0 82 -135 82q-72 0 -113 -39q18 -23 21 -41q0 -35 -41 -55q-31 -16 -70 -16q-139 0 -139 98q0 150 362 149q379 0 379 -223q-2 -20 -2 -26v-174q0 -35 2 -41q6 -18 31 -21q35 0 35 47v96 h102v-124q0 -98 -61 -132q-41 -23 -152 -22q-92 0 -135 16q-66 25 -82 99q-119 -119 -299 -119q-236 0 -235 170zM377 918q0 -49 78 -50q147 0 147 174q-18 -25 -129 -61q-96 -33 -96 -63z" />
<glyph unicode="&#xab;" horiz-adv-x="1259" d="M76 492l227 231h299l-229 -231l229 -238h-297zM563 492l230 231h294l-229 -231l229 -238h-294z" />
<glyph unicode="&#xac;" horiz-adv-x="3049" d="M565 459v1140q16 68 62 72h51q49 -4 61 -84v-749q211 6 230 -136v-278q-12 -106 -156 -129l-125 6q-55 16 -86 45q-37 35 -37 113zM627 440q16 -61 57 -67q94 -12 111 71v248q-6 39 -56 62q-96 10 -112 -68v-246zM801 1028v297q12 94 155 123q223 16 242 -145v-252 q-18 -119 -151 -146q-213 -16 -246 123zM975 1051q4 -39 55 -62q94 -10 113 66v248q-18 61 -58 67q-16 4 -30 4q-60 0 -80 -78v-245zM1016 424q-12 49 28 123q47 51 101 51l141 -2q66 18 72 80q4 61 -64 88h-49q-45 -10 -84 -105q-39 -35 -69 -34q-41 0 -70 61 q-6 123 149 152q225 16 242 -146v-258q-12 -84 -38.5 -108.5t-112.5 -30.5q-213 -16 -246 129zM1077 449q0 -49 60 -76q14 -2 26 -2q51 0 80 59v105q-25 4 -45 4q-94 0 -119 -66q-2 -12 -2 -24zM1251 975v330l23 61q76 82 135 80l117 -6q78 -23 119 -97l8 -49v-454 q217 0 231 -133v-287q-12 -104 -158 -129q-211 -10 -249 121v903q-23 55 -76 55q-12 0 -27 -4q-33 -16 -55 -61q-6 -43 10 -68q82 -14 82 -100v-160q0 -59 -49 -74q-111 -12 -111 72zM1538 440q18 -61 57 -67q96 -12 113 71v248q-6 39 -57 62q-95 10 -113 -68v-246z M1712 1034v279q14 125 232 141q-4 39 -5 70q0 147 66 147h49q61 -10 62 -90v-553q-45 -119 -158 -123q-246 -8 -246 129zM1886 1055q6 -43 58 -72q94 -10 110 68v245q-18 70 -82 70q-63 0 -86 -63v-248zM1937 440v252q17 117 150 146q225 6 248 -129q0 -94 -32 -126t-75 -48 l-184 -5q-53 -27 -53 -71q0 -12 2 -25q16 -39 61 -67h51q39 10 64.5 62t62.5 69q10 4 21 4q37 0 76 -51q16 -123 -150 -156q-225 -18 -242 145zM2111 596q27 -4 52 -4q115 0 114 92q0 47 -61 76q-12 2 -25 2q-53 -1 -80 -60v-106zM2173 1028v297q11 94 156 123 q223 16 241 -145v-252q-18 -119 -151 -146q-213 -16 -246 123zM2345 1051q6 -39 57 -62q94 -10 111 66v248q-16 61 -55 67q-16 4 -31 4q-59 0 -82 -78v-245zM2376 410q-11 90 67 110q86 6 99 -53q4 -51 81 -90q55 -6 95 61q6 43 -11 72l-41 29q-223 6 -223 22 q-66 35 -65 125q0 23 4 49q53 106 151 111q211 12 242 -101q2 -16 2 -30q0 -29 -16 -53q-18 -31 -45 -31q-6 0 -9 2q-57 0 -81 26q-18 20 -37 80q-12 51 -78 45t-74 -73q-4 -51 12 -78l39 -27l201 -12q92 -39 92 -127q0 -25 -6 -51q-55 -111 -158 -113q-203 -4 -241 107z M2615 993l4 320l23 63q80 84 135 78q213 16 246 -151v-334q-10 -43 -62 -58q-84 0 -94 27l-18 45v307l-21 62q-35 25 -63 24q-47 0 -78 -63q-6 -43 12 -66q96 -39 90 -98v-150q12 -78 -57 -88q-16 -2 -29 -2q-88 0 -88 84zM2787 815v16h84v-16h-32v-119h-17v119h-35z M2896 696v135h33l32 -110l29 110h33v-135h-17l-2 129l-32 -129h-27l-35 123v-123h-14z" />
<glyph unicode="&#xad;" horiz-adv-x="698" d="M0 369v245h698v-245h-698z" />
<glyph unicode="&#xae;" horiz-adv-x="1921" d="M47 866q0 379 266.5 639t644.5 260q379 0 645.5 -260t266.5 -639t-266.5 -641t-645.5 -262t-645 262t-266 641zM258 866q0 -293 203 -493.5t497 -200.5q293 0 498 200.5t205 493.5t-204 493t-499 200q-293 0 -496.5 -200t-203.5 -493zM459 547v129h22q88 0 111.5 28.5 t23.5 118.5v117q0 88 -25.5 117.5t-109.5 29.5h-22v132h684q272 0 272 -175q0 -100 -98 -143q-33 -14 -100 -22q166 0 165 -138v-45q0 -49 29 -49q31 0 31 45v76h82v-88q0 -152 -185 -152q-125 0 -168 78q-6 10 -41 144q-20 78 -86 77h-190v-22q0 -80 25.5 -104.5 t107.5 -24.5h25v-129h-553zM854 958h176q125 0 125 68q0 61 -102 61h-199v-129z" />
<glyph unicode="&#xaf;" horiz-adv-x="1202" d="M80 1235v199h1028v-199h-1028z" />
<glyph unicode="&#xb0;" horiz-adv-x="1024" d="M188 1069q0 133 95.5 221t228.5 88q135 0 227 -87t92 -222q0 -131 -93 -219t-226 -88t-228.5 88t-95.5 219zM324 1069q0 -80 53 -132t133 -52q76 0 132 54t56 130q0 82 -53 134t-135 52t-134 -52t-52 -134z" />
<glyph unicode="&#xb1;" horiz-adv-x="1122" d="M20 0v238h1078v-238h-1078zM20 715v235h420v416h240v-416h418v-235h-418v-418h-240v418h-420z" />
<glyph unicode="&#xb2;" d="M82 596q25 152 63 211q45 70 177 127l69 31q82 37 98 49q45 37 46 100q0 55 -38 91t-96 36q-59 0 -110 -47q43 -37 43 -80t-32 -70.5t-75 -27.5q-53 0 -85.5 31.5t-32.5 85.5q0 106 124 165q98 47 218 48q139 0 233 -50q121 -63 121 -190q0 -115 -131 -180 q-47 -25 -246 -84q-137 -39 -147 -88h268q109 0 121 73q2 12 0 35h135v-266h-723z" />
<glyph unicode="&#xb3;" d="M72 784q0 51 31.5 85t82.5 34q43 0 79 -31.5t36 -74.5q0 -49 -43 -80q45 -41 111 -41q68 0 115.5 31.5t47.5 95.5q0 82 -90 106q-29 8 -90 9v108q61 0 86 6q88 23 88 101q0 125 -149 124q-63 0 -111 -36q41 -35 41 -80q0 -47 -33.5 -77t-80.5 -30q-51 0 -84 33t-33 84 q0 106 125 158q94 39 217 39q135 0 229 -39q133 -53 133 -168q0 -109 -118 -150q-35 -12 -119 -18q141 -20 188 -49q68 -42 68 -138q0 -113 -137 -172q-102 -43 -232 -43q-129 0 -227 43q-131 57 -131 170z" />
<glyph unicode="&#xb4;" horiz-adv-x="667" d="M78 1163l86 342h448l-358 -342h-176z" />
<glyph unicode="&#xb6;" horiz-adv-x="1202" d="M113 993q0 358 465 359h487v-101h-98v-1439h-133v1437h-187v-1437h-137v835q-33 -4 -64 -4q-145 0 -239 101.5t-94 248.5z" />
<glyph unicode="&#xb7;" horiz-adv-x="460" d="M135 692q0 43 31 74t74 31t73.5 -31t30.5 -74t-30.5 -73.5t-73.5 -30.5t-74 30.5t-31 73.5z" />
<glyph unicode="&#xb8;" horiz-adv-x="1024" d="M283 -256h104q25 -47 70 -47q63 0 63 61q0 29 -25.5 49.5t-54.5 16.5l-51 -6l37 182h121l-27 -129h23q180 0 180 -125q0 -150 -205 -149q-205 0 -235 147z" />
<glyph unicode="&#xb9;" d="M39 1118v142h22q92 0 125 8q63 18 82 82h168v-422q0 -92 45 -133q27 -25 103 -31v-143h-543v143q92 0 123 35q25 33 24 129v84q0 74 -38 94q-27 12 -111 12z" />
<glyph unicode="&#xba;" horiz-adv-x="1075" d="M39 467v147h1008v-147h-1008zM80 1065q0 168 153 250q121 66 304 65q176 0 299 -67q153 -84 153 -246q0 -168 -153 -252q-123 -68 -306 -67q-182 0 -301 67q-150 82 -149 250zM373 1065q0 -80 42 -130t120 -50q76 0 118.5 51t42.5 129t-43 127t-118 49q-76 0 -119 -49 t-43 -127z" />
<glyph unicode="&#xbb;" horiz-adv-x="1259" d="M172 254l229 238l-229 231h299l227 -231l-227 -238h-299zM659 254l228 238l-228 231h297l228 -231l-228 -238h-297z" />
<glyph unicode="&#xbc;" d="M76 1118v142h22q92 0 125 8q63 18 82 82h168v-422q0 -92 45 -133q27 -25 103 -31v-143h-543v143q92 0 123 35q25 33 24 129v84q0 74 -39 94q-27 12 -110 12zM371 -6l772 1323h131l-770 -1323h-133zM881 246v108l432 381h164v-381h145v-106h-145v-25q0 -55 32 -71 q23 -12 84 -13h29v-145h-526v145h32q59 0 82 13q33 16 33 69v25h-362zM1069 354h174v158z" />
<glyph unicode="&#xbd;" d="M76 1112v141h22q92 0 125 9q63 18 82 81h168v-421q0 -92 45 -134q27 -25 103 -30v-144h-543v144q92 0 123 35q25 33 24 129v84q0 74 -39 94q-27 12 -110 12zM383 -12l772 1323h131l-770 -1323h-133zM930 6q25 152 63 211q45 70 176 127l70 31q82 37 98 49q45 37 45 100 q0 55 -37.5 91t-95.5 36q-59 0 -110 -47q43 -37 43 -80t-32 -70.5t-75 -27.5q-53 0 -86 31.5t-33 85.5q0 106 125 166q98 47 217 47q139 0 234 -49q121 -63 121 -191q0 -115 -131 -180q-47 -25 -246 -84q-137 -39 -148 -88h269q109 0 121 74q2 12 0 34h135v-266h-723z" />
<glyph unicode="&#xbe;" d="M84 846q0 51 31.5 85t83.5 34q43 0 78.5 -32t35.5 -75q0 -49 -43 -80q45 -41 111 -41q68 0 116 32t48 95q0 82 -90 107q-29 8 -90 8v108q61 0 86 7q88 23 88 100q0 125 -150 125q-63 0 -110 -37q41 -35 40 -80q0 -47 -33.5 -76.5t-80.5 -29.5q-51 0 -84 32.5t-33 83.5 q0 106 125 158q94 39 217 39q135 0 229 -39q133 -53 134 -168q0 -109 -119 -149q-35 -12 -119 -19q141 -20 188 -49q68 -41 68 -137q0 -113 -137 -172q-102 -43 -232 -43q-129 0 -227 43q-131 57 -131 170zM463 -6l772 1323h131l-770 -1323h-133zM967 246v108l436 381h166 v-381h145v-106h-145l-2 -25q-6 -84 119 -84h28v-145h-530v145h35q59 0 81 13q31 16 31 69v25h-364zM1157 354h174v158z" />
<glyph unicode="&#xbf;" horiz-adv-x="1288" d="M82 311q0 88 39 146q31 45 139 106l131 74q90 51 111 76q29 35 28 106h271q0 -88 -15 -129q-18 -55 -75 -104l-105 -88q-82 -70 -82 -166q0 -80 49.5 -132.5t128.5 -52.5q51 0 101 37q-29 57 -29 99q0 92 59.5 152.5t151.5 60.5q98 0 158.5 -59.5t60.5 -157.5 q0 -176 -198 -267q-152 -66 -353 -65q-219 0 -370 73q-201 96 -201 291zM459 1133q0 90 61.5 151.5t151.5 61.5q84 0 145.5 -61.5t61.5 -145.5q0 -86 -61.5 -148.5t-147.5 -62.5q-88 0 -149.5 58t-61.5 147z" />
<glyph unicode="&#xc0;" horiz-adv-x="2045" d="M-47 0v258q143 0 223 59q61 45 146 185l509 846h406l512 -834q90 -145 186 -209q59 -39 158 -47v-258h-1061v258q115 0 144 4q94 16 94 80q0 31 -33 90h-637q-39 -45 -39 -78q0 -98 205 -98h27q4 0 10 2v-258h-850zM658 1769h450l82 -342h-174zM727 651h375l-195 307z " />
<glyph unicode="&#xc1;" horiz-adv-x="2045" d="M-47 0v258q143 0 223 59q61 45 146 185l509 846h406l512 -834q90 -145 186 -209q59 -39 158 -47v-258h-1061v258q115 0 144 4q94 16 94 80q0 31 -33 90h-637q-39 -45 -39 -78q0 -98 205 -98h27q4 0 10 2v-258h-850zM727 651h375l-195 307zM854 1429l86 342h448l-358 -342 h-176z" />
<glyph unicode="&#xc2;" horiz-adv-x="2045" d="M-47 0v258q143 0 223 59q61 45 146 185l509 846h406l512 -834q90 -145 186 -209q59 -39 158 -47v-258h-1061v258q115 0 144 4q94 16 94 80q0 31 -33 90h-637q-39 -45 -39 -78q0 -98 205 -98h27q4 0 10 2v-258h-850zM575 1575l453 205l449 -205l-217 -160l-232 109 l-233 -109zM727 651h375l-195 307z" />
<glyph unicode="&#xc3;" horiz-adv-x="2045" d="M-47 0v258q143 0 223 59q61 45 146 185l509 846h406l512 -834q90 -145 186 -209q59 -39 158 -47v-258h-1061v258q115 0 144 4q94 16 94 80q0 31 -33 90h-637q-39 -45 -39 -78q0 -98 205 -98h27q4 0 10 2v-258h-850zM500 1450q84 319 328 319q326 -80 389 -79 q121 0 157 77l148 -41q-84 -317 -328 -317q-109 31 -162 43q-174 43 -231 43q-115 0 -154 -74zM727 651h375l-195 307z" />
<glyph unicode="&#xc4;" horiz-adv-x="2045" d="M-47 0v258q143 0 223 59q61 45 146 185l509 846h406l512 -834q90 -145 186 -209q59 -39 158 -47v-258h-1061v258q115 0 144 4q94 16 94 80q0 31 -33 90h-637q-39 -45 -39 -78q0 -98 205 -98h27q4 0 10 2v-258h-850zM498 1593q0 78 67 123q57 41 140 41q82 0 139 -41 q65 -45 65 -123q0 -80 -60 -122t-144 -42t-142 39q-66 45 -65 125zM727 651h375l-195 307zM1151 1593q0 76 66 123q59 41 139 41q82 0 139 -41q66 -45 66 -123q0 -80 -66 -125q-57 -39 -141 -39t-139 39q-63 45 -64 125z" />
<glyph unicode="&#xc5;" horiz-adv-x="2045" d="M-47 0v258q143 0 223 59q61 45 146 185l509 846h406l512 -834q90 -145 186 -209q59 -39 158 -47v-258h-1061v258q115 0 144 4q94 16 94 80q0 31 -33 90h-637q-39 -45 -39 -78q0 -98 205 -98h27q4 0 10 2v-258h-850zM727 651h375l-195 307zM761 1601q0 92 89 148 q76 47 174 47q100 0 174 -45q88 -56 88 -150t-88 -149q-74 -45 -174 -45q-96 0 -174 47q-88 55 -89 147zM929 1599q0 -39 28 -66.5t67 -27.5t66.5 27.5t27.5 66.5q0 94 -94 94t-95 -94z" />
<glyph unicode="&#xc6;" horiz-adv-x="2955" d="M12 0v258q170 0 338 121q4 2 133 123l912 846h1503v-519h-258q-18 174 -98 226q-51 33 -197 32h-463v-284h121q104 0 145 31q49 37 50 137h266v-588h-264q0 109 -74 143q-47 23 -172 23h-72v-289h455q164 0 232.5 56.5t68.5 218.5h260v-535h-1811v258l52 2q37 -2 61 -2 q156 0 195 125l6 49h-668q-82 -63 -82 -113q0 -55 150 -59l61 -2v-258h-850zM952 651h504v443z" />
<glyph unicode="&#xc7;" horiz-adv-x="1882" d="M57 674q0 342 260 538q236 180 588 181q170 0 301 -37q90 -27 273 -80q68 0 82 72h258v-529h-256q-47 162 -185 248q-127 78 -303 78q-203 0 -344 -123q-147 -129 -147 -330q0 -211 157 -352q150 -135 365 -135q326 0 479 309h234q-74 -283 -283 -424 q-197 -135 -498 -135l-20 -102h22q180 0 181 -125q0 -150 -205 -150t-236 148h105q25 -47 69 -48q63 0 64 62q0 29 -25.5 49.5t-54.5 15.5l-51 -6l31 154q-358 0 -596 176q-264 197 -265 545z" />
<glyph unicode="&#xc8;" horiz-adv-x="1982" d="M78 1087v261h1812v-519h-258q-18 176 -94 226q-49 33 -201 32h-463v-284h121q104 0 146 31q49 37 49 137h266v-588h-264q0 109 -74 143q-47 23 -172 23h-72v-289h455q164 0 232.5 56.5t68.5 218.5h260v-535h-1810v258l51 2q170 6 211 47q55 55 55 250v295q0 154 -75 195 q-57 35 -191 38zM537 1755h450l82 -342h-174z" />
<glyph unicode="&#xc9;" horiz-adv-x="1982" d="M78 1087v261h1812v-519h-258q-18 176 -94 226q-49 33 -201 32h-463v-284h121q104 0 146 31q49 37 49 137h266v-588h-264q0 109 -74 143q-47 23 -172 23h-72v-289h455q164 0 232.5 56.5t68.5 218.5h260v-535h-1810v258l51 2q170 6 211 47q55 55 55 250v295q0 154 -75 195 q-57 35 -191 38zM864 1431l86 342h448l-358 -342h-176z" />
<glyph unicode="&#xca;" horiz-adv-x="1982" d="M78 1087v261h1812v-519h-258q-18 176 -94 226q-49 33 -201 32h-463v-284h121q104 0 146 31q49 37 49 137h266v-588h-264q0 109 -74 143q-47 23 -172 23h-72v-289h455q164 0 232.5 56.5t68.5 218.5h260v-535h-1810v258l51 2q170 6 211 47q55 55 55 250v295q0 154 -75 195 q-57 35 -191 38zM561 1567l453 205l449 -205l-217 -160l-232 109l-233 -109z" />
<glyph unicode="&#xcb;" horiz-adv-x="1982" d="M78 1087v261h1812v-519h-258q-18 176 -94 226q-49 33 -201 32h-463v-284h121q104 0 146 31q49 37 49 137h266v-588h-264q0 109 -74 143q-47 23 -172 23h-72v-289h455q164 0 232.5 56.5t68.5 218.5h260v-535h-1810v258l51 2q170 6 211 47q55 55 55 250v295q0 154 -75 195 q-57 35 -191 38zM490 1603q0 78 67 123q57 41 140 41q82 0 139 -41q65 -45 65 -123q0 -80 -60 -122t-144 -42t-142 39q-66 45 -65 125zM1143 1603q0 76 66 123q59 41 139 41q82 0 139 -41q66 -45 66 -123q0 -80 -66 -125q-57 -39 -141 -39t-139 39q-63 45 -64 125z" />
<glyph unicode="&#xcc;" horiz-adv-x="1298" d="M96 0v258l49 2q172 8 219.5 56.5t47.5 240.5v338q0 119 -82 160q-49 25 -185 30l-49 2v261h1104v-261l-45 -2q-158 -8 -188 -28q-78 -55 -78 -266v-234q0 -193 53 -248q39 -41 213 -49l45 -2v-258h-1104zM207 1773h450l82 -342h-174z" />
<glyph unicode="&#xcd;" horiz-adv-x="1298" d="M96 0v258l49 2q172 8 219.5 56.5t47.5 240.5v338q0 119 -82 160q-49 25 -185 30l-49 2v261h1104v-261l-45 -2q-158 -8 -188 -28q-78 -55 -78 -266v-234q0 -193 53 -248q39 -41 213 -49l45 -2v-258h-1104zM545 1427l86 342h448l-358 -342h-176z" />
<glyph unicode="&#xce;" horiz-adv-x="1298" d="M96 0v258l49 2q172 8 219.5 56.5t47.5 240.5v338q0 119 -82 160q-49 25 -185 30l-49 2v261h1104v-261l-45 -2q-158 -8 -188 -28q-78 -55 -78 -266v-234q0 -193 53 -248q39 -41 213 -49l45 -2v-258h-1104zM202 1561l453 205l449 -205l-217 -160l-232 109l-233 -109z" />
<glyph unicode="&#xcf;" horiz-adv-x="1298" d="M90 1591q0 78 67 123q57 41 140 41q82 0 139 -41q65 -45 65 -123q0 -80 -60 -122t-144 -42t-142 39q-66 45 -65 125zM96 0v258l49 2q172 8 219.5 56.5t47.5 240.5v338q0 119 -82 160q-49 25 -185 30l-49 2v261h1104v-261l-45 -2q-158 -8 -188 -28q-78 -55 -78 -266v-234 q0 -193 53 -248q39 -41 213 -49l45 -2v-258h-1104zM743 1591q0 76 66 123q59 41 139 41q82 0 139 -41q66 -45 66 -123q0 -80 -66 -125q-57 -39 -141 -39t-139 39q-63 45 -64 125z" />
<glyph unicode="&#xd0;" horiz-adv-x="2236" d="M78 0v258l53 2q139 6 182 23q76 31 76 102q0 4 2 31q8 123 8 139h-321v236h321q0 125 -10 172q0 63 -108 100q-57 18 -150 22l-53 2v261h1202q393 0 621 -146q276 -174 276 -547q0 -342 -227 -510q-201 -145 -557 -145h-1315zM872 258h291q256 0 363 72q133 90 133 334 q0 258 -170 356q-117 68 -356 67h-261v-296h273v-236h-273v-297z" />
<glyph unicode="&#xd1;" horiz-adv-x="2441" d="M78 0v258h49q178 0 227 68q39 53 39 231v305q0 111 -28 150q-55 76 -238 75h-49v261h721l993 -758v282q0 16 2 35q0 180 -268 180h-53v261h919v-261h-43q-184 0 -233 -71q-35 -49 -35 -225v-818h-262l-1141 861v-277q0 -172 45 -231q53 -68 219 -68h49v-258h-913z M780 1464q84 319 328 319q326 -80 389 -79q121 0 157 77l148 -41q-84 -317 -328 -317q-109 31 -162 43q-174 43 -231 43q-115 0 -154 -74z" />
<glyph unicode="&#xd2;" horiz-adv-x="2246" d="M59 674q0 375 347 571q283 158 688 158q403 0 686 -164q346 -198 346 -573t-338 -568q-272 -154 -678 -153q-414 0 -696 155q-354 195 -355 574zM580 674q0 -219 151 -355q145 -131 367 -131q209 0 354 138.5t145 347.5t-143 347t-354 138q-221 0 -367 -131 q-154 -137 -153 -354zM592 1786h450l82 -342h-174z" />
<glyph unicode="&#xd3;" horiz-adv-x="2246" d="M59 674q0 375 347 571q283 158 688 158q403 0 686 -164q346 -198 346 -573t-338 -568q-272 -154 -678 -153q-414 0 -696 155q-354 195 -355 574zM580 674q0 -219 151 -355q145 -131 367 -131q209 0 354 138.5t145 347.5t-143 347t-354 138q-221 0 -367 -131 q-154 -137 -153 -354zM1043 1454l86 342h448l-358 -342h-176z" />
<glyph unicode="&#xd4;" horiz-adv-x="2246" d="M59 674q0 375 347 571q283 158 688 158q403 0 686 -164q346 -198 346 -573t-338 -568q-272 -154 -678 -153q-414 0 -696 155q-354 195 -355 574zM580 674q0 -219 151 -355q145 -131 367 -131q209 0 354 138.5t145 347.5t-143 347t-354 138q-221 0 -367 -131 q-154 -137 -153 -354zM628 1594l453 205l449 -205l-217 -160l-232 109l-233 -109z" />
<glyph unicode="&#xd5;" horiz-adv-x="2246" d="M59 674q0 375 347 571q283 158 688 158q403 0 686 -164q346 -198 346 -573t-338 -568q-272 -154 -678 -153q-414 0 -696 155q-354 195 -355 574zM580 674q0 -219 151 -355q145 -131 367 -131q209 0 354 138.5t145 347.5t-143 347t-354 138q-221 0 -367 -131 q-154 -137 -153 -354zM602 1475q84 319 328 319q326 -80 389 -79q121 0 157 77l148 -41q-84 -317 -328 -317q-109 31 -162 43q-174 43 -231 43q-115 0 -154 -74z" />
<glyph unicode="&#xd6;" horiz-adv-x="2246" d="M59 674q0 375 347 571q283 158 688 158q403 0 686 -164q346 -198 346 -573t-338 -568q-272 -154 -678 -153q-414 0 -696 155q-354 195 -355 574zM541 1597q0 78 67 123q57 41 140 41q82 0 139 -41q65 -45 65 -123q0 -80 -60 -122t-144 -42t-142 39q-66 45 -65 125z M580 674q0 -219 151 -355q145 -131 367 -131q209 0 354 138.5t145 347.5t-143 347t-354 138q-221 0 -367 -131q-154 -137 -153 -354zM1194 1597q0 76 66 123q59 41 139 41q82 0 139 -41q66 -45 66 -123q0 -80 -66 -125q-57 -39 -141 -39t-139 39q-63 45 -64 125z" />
<glyph unicode="&#xd7;" horiz-adv-x="1122" d="M92 475l297 293l-297 295l170 166l297 -293l295 293l168 -166l-293 -295l293 -293l-168 -168l-295 293l-297 -293z" />
<glyph unicode="&#xd8;" horiz-adv-x="2185" d="M57 664q0 190 113 354q104 156 281 250q254 135 632 135q180 0 277 -17q182 -31 379 -133l237 181l119 -162l-180 -129q72 -70 104 -121q107 -166 107 -371q0 -375 -346 -563q-274 -152 -684 -151q-229 0 -459 67q-74 23 -184 68l-252 -187l-115 154l195 145 q-74 63 -111 115q-113 158 -113 365zM582 680q0 -88 8 -122t47 -112l799 588q-133 121 -332 121q-219 0 -367 -127q-156 -133 -155 -348zM758 291q123 -119 334 -119q219 0 366.5 138.5t147.5 357.5q0 115 -52 211z" />
<glyph unicode="&#xd9;" horiz-adv-x="2324" d="M47 1087v261h1118v-261l-51 -2q-158 -6 -199 -43q-68 -59 -67 -251v-89q0 -233 92 -344q100 -121 330 -120q418 0 418 385v270q0 119 -80 160q-51 27 -187 32l-45 2v261h901v-261l-39 -2q-158 -8 -198 -45q-68 -59 -68 -249v-234q0 -311 -256 -471q-213 -133 -542 -133 q-809 0 -809 694v256q0 119 -76 156q-45 20 -191 26zM782 1784h450l82 -342h-174z" />
<glyph unicode="&#xda;" horiz-adv-x="2324" d="M47 1087v261h1118v-261l-51 -2q-158 -6 -199 -43q-68 -59 -67 -251v-89q0 -233 92 -344q100 -121 330 -120q418 0 418 385v270q0 119 -80 160q-51 27 -187 32l-45 2v261h901v-261l-39 -2q-158 -8 -198 -45q-68 -59 -68 -249v-234q0 -311 -256 -471q-213 -133 -542 -133 q-809 0 -809 694v256q0 119 -76 156q-45 20 -191 26zM1233 1433l86 342h448l-358 -342h-176z" />
<glyph unicode="&#xdb;" horiz-adv-x="2324" d="M47 1087v261h1118v-261l-51 -2q-158 -6 -199 -43q-68 -59 -67 -251v-89q0 -233 92 -344q100 -121 330 -120q418 0 418 385v270q0 119 -80 160q-51 27 -187 32l-45 2v261h901v-261l-39 -2q-158 -8 -198 -45q-68 -59 -68 -249v-234q0 -311 -256 -471q-213 -133 -542 -133 q-809 0 -809 694v256q0 119 -76 156q-45 20 -191 26zM843 1579l453 205l449 -205l-217 -160l-232 109l-233 -109z" />
<glyph unicode="&#xdc;" horiz-adv-x="2324" d="M47 1087v261h1118v-261l-51 -2q-158 -6 -199 -43q-68 -59 -67 -251v-89q0 -233 92 -344q100 -121 330 -120q418 0 418 385v270q0 119 -80 160q-51 27 -187 32l-45 2v261h901v-261l-39 -2q-158 -8 -198 -45q-68 -59 -68 -249v-234q0 -311 -256 -471q-213 -133 -542 -133 q-809 0 -809 694v256q0 119 -76 156q-45 20 -191 26zM740 1597q0 78 67 123q57 41 140 41q82 0 139 -41q65 -45 65 -123q0 -80 -60 -122t-144 -42t-142 39q-66 45 -65 125zM1393 1597q0 76 66 123q59 41 139 41q82 0 139 -41q66 -45 66 -123q0 -80 -66 -125 q-57 -39 -141 -39t-139 39q-63 45 -64 125z" />
<glyph unicode="&#xdd;" horiz-adv-x="1660" d="M55 477q0 195 129 342q106 121 246 162l127 125h-180v242h424l313 311l121 -117l-199 -194h379v-910q0 -127 31 -159q25 -27 162 -35l37 -2v-242h-664v121q-14 -33 -31 -53q-100 -117 -352 -117q-229 0 -386 149.5t-157 376.5zM535 475q0 -102 63.5 -165.5t165.5 -63.5 q104 0 165.5 62.5t61.5 166.5q0 100 -63.5 163.5t-163.5 63.5q-102 0 -165.5 -62t-63.5 -165zM684 997q100 -18 207 -88q96 -61 88 -73q0 154 -21 196q-35 74 -163 74z" />
<glyph unicode="&#xde;" horiz-adv-x="1689" d="M35 1264v239h690v-303q123 170 365 170q544 0 544 -397q0 -227 -147 -426q-160 -217 -379 -217q-240 0 -383 168v-60q0 -121 33 -157q27 -33 155 -37l64 -2v-242h-940v242l57 2q125 4 158 36.5t33 157.5v627q0 125 -30 158.5t-161 38.5zM713 854q0 -102 61.5 -165.5 t163.5 -63.5q100 0 163.5 64.5t63.5 164.5q0 102 -62.5 165.5t-164.5 63.5t-163.5 -63.5t-61.5 -165.5z" />
<glyph unicode="&#xdf;" horiz-adv-x="1781" d="M66 0v242l51 2q127 4 159.5 36.5t32.5 157.5v86q0 123 -33.5 158t-158.5 39l-51 2v240h243q27 199 117 288q152 150 526 150q227 0 383 -58q227 -82 228 -268q0 -152 -201 -215q123 -23 182 -59q182 -113 182 -379q0 -211 -133 -341t-346 -130q-188 0 -299 76 q-125 88 -125 266q0 23 2 37q0 8 2 14h168q-2 -20 -2 -33q0 -152 123 -151q158 0 158 262q0 164 -55 229q-61 72 -224 72l9 240q139 0 139 106q0 139 -182 139q-123 0 -173 -71q-41 -59 -40 -189v-948h-682z" />
<glyph unicode="&#xe0;" horiz-adv-x="1691" d="M55 242q0 213 230 282q51 16 426 56q229 25 229 125q0 74 -80 110q-61 29 -145 29q-117 0 -189 -66q35 -43 35 -69q2 -59 -65 -95q-53 -27 -119 -26q-90 0 -154 35q-78 45 -78 129q0 254 605 254q633 0 628 -377q0 -14 -2 -31v-14v-293q0 -63 2 -70q8 -31 52 -31 q57 0 57 78l2 162h168v-174q0 -20 2 -39q0 -129 -51 -180q-76 -76 -303 -76q-150 0 -226 29q-113 45 -135 166q-199 -199 -500 -199q-389 0 -389 285zM379 1460h450l82 -342h-174zM569 289q0 -43 45 -66q35 -18 82 -18q248 0 248 295q-41 -51 -221 -105q-154 -45 -154 -106z " />
<glyph unicode="&#xe1;" horiz-adv-x="1691" d="M55 242q0 213 230 282q51 16 426 56q229 25 229 125q0 74 -80 110q-61 29 -145 29q-117 0 -189 -66q35 -43 35 -69q2 -59 -65 -95q-53 -27 -119 -26q-90 0 -154 35q-78 45 -78 129q0 254 605 254q633 0 628 -377q0 -14 -2 -31v-14v-293q0 -63 2 -70q8 -31 52 -31 q57 0 57 78l2 162h168v-174q0 -20 2 -39q0 -129 -51 -180q-76 -76 -303 -76q-150 0 -226 29q-113 45 -135 166q-199 -199 -500 -199q-389 0 -389 285zM569 289q0 -43 45 -66q35 -18 82 -18q248 0 248 295q-41 -51 -221 -105q-154 -45 -154 -106zM633 1112l86 342h448 l-358 -342h-176z" />
<glyph unicode="&#xe2;" horiz-adv-x="1691" d="M55 242q0 213 230 282q51 16 426 56q229 25 229 125q0 74 -80 110q-61 29 -145 29q-117 0 -189 -66q35 -43 35 -69q2 -59 -65 -95q-53 -27 -119 -26q-90 0 -154 35q-78 45 -78 129q0 254 605 254q633 0 628 -377q0 -14 -2 -31v-14v-293q0 -63 2 -70q8 -31 52 -31 q57 0 57 78l2 162h168v-174q0 -20 2 -39q0 -129 -51 -180q-76 -76 -303 -76q-150 0 -226 29q-113 45 -135 166q-199 -199 -500 -199q-389 0 -389 285zM292 1256l453 205l449 -205l-217 -160l-232 109l-233 -109zM569 289q0 -43 45 -66q35 -18 82 -18q248 0 248 295 q-41 -51 -221 -105q-154 -45 -154 -106z" />
<glyph unicode="&#xe3;" horiz-adv-x="1691" d="M55 242q0 213 230 282q51 16 426 56q229 25 229 125q0 74 -80 110q-61 29 -145 29q-117 0 -189 -66q35 -43 35 -69q2 -59 -65 -95q-53 -27 -119 -26q-90 0 -154 35q-78 45 -78 129q0 254 605 254q633 0 628 -377q0 -14 -2 -31v-14v-293q0 -63 2 -70q8 -31 52 -31 q57 0 57 78l2 162h168v-174q0 -20 2 -39q0 -129 -51 -180q-76 -76 -303 -76q-150 0 -226 29q-113 45 -135 166q-199 -199 -500 -199q-389 0 -389 285zM236 1147q84 319 328 319q326 -80 389 -79q121 0 157 77l148 -41q-84 -317 -328 -317q-109 31 -162 43q-174 43 -231 43 q-115 0 -154 -74zM569 289q0 -43 45 -66q35 -18 82 -18q248 0 248 295q-41 -51 -221 -105q-154 -45 -154 -106z" />
<glyph unicode="&#xe4;" horiz-adv-x="1691" d="M55 242q0 213 230 282q51 16 426 56q229 25 229 125q0 74 -80 110q-61 29 -145 29q-117 0 -189 -66q35 -43 35 -69q2 -59 -65 -95q-53 -27 -119 -26q-90 0 -154 35q-78 45 -78 129q0 254 605 254q633 0 628 -377q0 -14 -2 -31v-14v-293q0 -63 2 -70q8 -31 52 -31 q57 0 57 78l2 162h168v-174q0 -20 2 -39q0 -129 -51 -180q-76 -76 -303 -76q-150 0 -226 29q-113 45 -135 166q-199 -199 -500 -199q-389 0 -389 285zM197 1280q0 78 67 123q57 41 140 41q82 0 139 -41q65 -45 65 -123q0 -80 -60 -122t-144 -42t-142 39q-66 45 -65 125z M569 289q0 -43 45 -66q35 -18 82 -18q248 0 248 295q-41 -51 -221 -105q-154 -45 -154 -106zM850 1280q0 76 66 123q59 41 139 41q82 0 139 -41q66 -45 66 -123q0 -80 -66 -125q-57 -39 -141 -39t-139 39q-63 45 -64 125z" />
<glyph unicode="&#xe5;" horiz-adv-x="1691" d="M55 242q0 213 230 282q51 16 426 56q229 25 229 125q0 74 -80 110q-61 29 -145 29q-117 0 -189 -66q35 -43 35 -69q2 -59 -65 -95q-53 -27 -119 -26q-90 0 -154 35q-78 45 -78 129q0 254 605 254q633 0 628 -377q0 -14 -2 -31v-14v-293q0 -63 2 -70q8 -31 52 -31 q57 0 57 78l2 162h168v-174q0 -20 2 -39q0 -129 -51 -180q-76 -76 -303 -76q-150 0 -226 29q-113 45 -135 166q-199 -199 -500 -199q-389 0 -389 285zM483 1274q0 92 89 148q76 47 174 47q100 0 174 -45q88 -56 88 -150t-88 -149q-74 -45 -174 -45q-96 0 -174 47 q-88 55 -89 147zM569 289q0 -43 45 -66q35 -18 82 -18q248 0 248 295q-41 -51 -221 -105q-154 -45 -154 -106zM651 1272q0 -39 28 -66.5t67 -27.5t66.5 27.5t27.5 66.5q0 94 -94 94t-95 -94z" />
<glyph unicode="&#xe6;" horiz-adv-x="2332" d="M55 248q0 193 230 256q115 12 229 22q184 23 289 60q143 49 143 127q0 72 -76 108q-59 29 -139 29q-111 0 -201 -57q31 -43 35 -74q0 -121 -196 -121q-86 0 -150 37q-74 43 -74 125q0 129 197 194q160 53 381 54q256 0 438 -95q195 100 430 101q307 0 490 -144 q196 -157 196 -456h-888q61 -242 321 -242q178 0 270 123h258q-76 -150 -172 -219q-168 -123 -469 -123q-211 0 -335 39q-166 53 -271 192q-174 -231 -502 -231q-172 0 -286 61q-147 78 -148 234zM567 299q0 -92 140 -92q102 0 167.5 71.5t65.5 176.5q0 25 -2 37 q-51 -59 -166 -93q-205 -59 -205 -100zM1372 604h445q-25 215 -218 215q-195 0 -227 -215z" />
<glyph unicode="&#xe7;" horiz-adv-x="1384" d="M55 487q0 254 224 396q190 123 458 123q211 0 375 -72q219 -94 219 -277q0 -92 -58.5 -142t-150.5 -50q-82 0 -145 39q-76 45 -76 121q0 100 107 118q-59 78 -177 78q-127 0 -204 -98q-70 -90 -70 -221q0 -139 80 -230q84 -96 221 -96q166 0 236 137h241 q-35 -184 -223 -278q-156 -78 -364 -78l-19 -86h23q180 0 180 -125q0 -150 -205 -149q-205 0 -235 147h104q25 -47 70 -47q63 0 63 61q0 29 -25.5 49.5t-54.5 16.5l-51 -6l29 145q-238 29 -394 154q-178 145 -178 370z" />
<glyph unicode="&#xe8;" horiz-adv-x="1484" d="M55 485q0 260 228 400q190 117 467 116q350 0 505 -122q175 -140 175 -478h-863q68 -236 326 -235q160 0 264 115h254q-98 -186 -260 -265q-139 -66 -369 -65q-289 0 -487 121q-240 143 -240 413zM361 1474h450l82 -342h-174zM547 592h446q-25 217 -215 217 q-195 0 -231 -217z" />
<glyph unicode="&#xe9;" horiz-adv-x="1484" d="M55 485q0 260 228 400q190 117 467 116q350 0 505 -122q175 -140 175 -478h-863q68 -236 326 -235q160 0 264 115h254q-98 -186 -260 -265q-139 -66 -369 -65q-289 0 -487 121q-240 143 -240 413zM547 592h446q-25 217 -215 217q-195 0 -231 -217zM653 1112l86 342h448 l-358 -342h-176z" />
<glyph unicode="&#xea;" horiz-adv-x="1484" d="M55 485q0 260 228 400q190 117 467 116q350 0 505 -122q175 -140 175 -478h-863q68 -236 326 -235q160 0 264 115h254q-98 -186 -260 -265q-139 -66 -369 -65q-289 0 -487 121q-240 143 -240 413zM366 1258l453 205l449 -205l-217 -160l-232 109l-233 -109zM547 592h446 q-25 217 -215 217q-195 0 -231 -217z" />
<glyph unicode="&#xeb;" horiz-adv-x="1484" d="M55 485q0 260 228 400q190 117 467 116q350 0 505 -122q175 -140 175 -478h-863q68 -236 326 -235q160 0 264 115h254q-98 -186 -260 -265q-139 -66 -369 -65q-289 0 -487 121q-240 143 -240 413zM223 1292q0 78 67 123q57 41 140 41q82 0 139 -41q65 -45 65 -123 q0 -80 -60 -122t-144 -42t-142 39q-66 45 -65 125zM547 592h446q-25 217 -215 217q-195 0 -231 -217zM876 1292q0 76 66 123q59 41 139 41q82 0 139 -41q66 -45 66 -123q0 -80 -66 -125q-57 -39 -141 -39t-139 39q-63 45 -64 125z" />
<glyph unicode="&#xec;" horiz-adv-x="1017" d="M74 723v240h684v-525q0 -127 30 -159q23 -29 158 -35l45 -2v-242h-915v242l55 2q127 4 160 36.5t33 157.5v86q0 145 -58 174q-41 18 -135 23zM96 1466h450l82 -342h-174z" />
<glyph unicode="&#xed;" horiz-adv-x="1017" d="M74 723v240h684v-525q0 -127 30 -159q23 -29 158 -35l45 -2v-242h-915v242l55 2q127 4 160 36.5t33 157.5v86q0 145 -58 174q-41 18 -135 23zM318 1116l86 342h448l-358 -342h-176z" />
<glyph unicode="&#xee;" horiz-adv-x="1017" d="M22 1264l453 205l449 -205l-217 -160l-232 109l-233 -109zM74 723v240h684v-525q0 -127 30 -159q23 -29 158 -35l45 -2v-242h-915v242l55 2q127 4 160 36.5t33 157.5v86q0 145 -58 174q-41 18 -135 23z" />
<glyph unicode="&#xef;" horiz-adv-x="1017" d="M-33 1296q0 78 67 123q57 41 140 41q82 0 139 -41q65 -45 65 -123q0 -80 -60 -122t-144 -42t-142 39q-66 45 -65 125zM74 723v240h684v-525q0 -127 30 -159q23 -29 158 -35l45 -2v-242h-915v242l55 2q127 4 160 36.5t33 157.5v86q0 145 -58 174q-41 18 -135 23zM620 1296 q0 76 66 123q59 41 139 41q82 0 139 -41q66 -45 66 -123q0 -80 -66 -125q-57 -39 -141 -39t-139 39q-63 45 -64 125z" />
<glyph unicode="&#xf1;" horiz-adv-x="1921" d="M74 0v242l55 2q127 4 160 36.5t33 157.5v86q0 121 -32 157t-161 40l-55 2v240h686v-162q72 86 149 129q123 68 312 67q233 0 335.5 -111.5t102.5 -346.5v-101q0 -121 33 -157q25 -31 157 -37l45 -2v-242h-854v242q106 0 145.5 30.5t39.5 133.5v96q0 215 -213 215 q-252 0 -252 -262v-76q0 -84 55 -115q41 -23 133 -22v-242h-874zM377 1120q84 319 328 319q326 -80 389 -79q121 0 157 77l148 -41q-84 -317 -328 -317q-109 31 -162 43q-174 43 -231 43q-115 0 -154 -74z" />
<glyph unicode="&#xf2;" horiz-adv-x="1630" d="M55 477q0 279 256 416q203 111 506 111q293 0 498 -111q258 -138 258 -406q0 -283 -256 -421q-203 -113 -510 -113q-303 0 -502 108q-250 137 -250 416zM402 1468h450l82 -342h-174zM543 477q0 -131 70.5 -215t197.5 -84q125 0 196.5 86t71.5 213q0 129 -67 211 q-74 88 -201 88q-131 0 -199.5 -83t-68.5 -216z" />
<glyph unicode="&#xf3;" horiz-adv-x="1630" d="M55 477q0 279 256 416q203 111 506 111q293 0 498 -111q258 -138 258 -406q0 -283 -256 -421q-203 -113 -510 -113q-303 0 -502 108q-250 137 -250 416zM543 477q0 -131 70.5 -215t197.5 -84q125 0 196.5 86t71.5 213q0 129 -67 211q-74 88 -201 88q-131 0 -199.5 -83 t-68.5 -216zM721 1124l86 342h448l-358 -342h-176z" />
<glyph unicode="&#xf4;" horiz-adv-x="1630" d="M55 477q0 279 256 416q203 111 506 111q293 0 498 -111q258 -138 258 -406q0 -283 -256 -421q-203 -113 -510 -113q-303 0 -502 108q-250 137 -250 416zM403 1245l453 205l449 -205l-217 -160l-232 109l-233 -109zM543 477q0 -131 70.5 -215t197.5 -84q125 0 196.5 86 t71.5 213q0 129 -67 211q-74 88 -201 88q-131 0 -199.5 -83t-68.5 -216z" />
<glyph unicode="&#xf5;" horiz-adv-x="1630" d="M55 477q0 279 256 416q203 111 506 111q293 0 498 -111q258 -138 258 -406q0 -283 -256 -421q-203 -113 -510 -113q-303 0 -502 108q-250 137 -250 416zM322 1127q84 319 328 319q326 -80 389 -79q121 0 157 77l148 -41q-84 -317 -328 -317q-109 31 -162 43 q-174 43 -231 43q-115 0 -154 -74zM543 477q0 -131 70.5 -215t197.5 -84q125 0 196.5 86t71.5 213q0 129 -67 211q-74 88 -201 88q-131 0 -199.5 -83t-68.5 -216z" />
<glyph unicode="&#xf6;" horiz-adv-x="1630" d="M55 477q0 279 256 416q203 111 506 111q293 0 498 -111q258 -138 258 -406q0 -283 -256 -421q-203 -113 -510 -113q-303 0 -502 108q-250 137 -250 416zM281 1317q0 78 67 123q57 41 140 41q82 0 139 -41q65 -45 65 -123q0 -80 -60 -122t-144 -42t-142 39q-66 45 -65 125 zM543 477q0 -131 70.5 -215t197.5 -84q125 0 196.5 86t71.5 213q0 129 -67 211q-74 88 -201 88q-131 0 -199.5 -83t-68.5 -216zM934 1317q0 76 66 123q59 41 139 41q82 0 139 -41q66 -45 66 -123q0 -80 -66 -125q-57 -39 -141 -39t-139 39q-63 45 -64 125z" />
<glyph unicode="&#xf7;" horiz-adv-x="1122" d="M20 412v237h1078v-237h-1078zM410 217q0 61 42 102t103 41t102 -41t41 -102q0 -66 -38.5 -103.5t-104.5 -37.5q-61 0 -103 40t-42 101zM410 844q0 63 41 102t104 39q66 0 104.5 -37.5t38.5 -103.5t-38.5 -104t-104.5 -38q-61 0 -103 40t-42 102z" />
<glyph unicode="&#xf8;" horiz-adv-x="1636" d="M55 459q0 287 248 430q203 115 512 115q111 0 248 -25q156 -27 237 -68l179 131l80 -106l-144 -107q166 -151 166 -358q0 -274 -244 -414q-199 -115 -495 -114q-295 0 -498 96l-192 -141l-95 110l158 115q-160 137 -160 336zM557 506q0 -49 10 -105q0 -8 4 -20l433 315 q-88 76 -189 76q-258 0 -258 -266zM637 250q20 -16 60 -45t122 -29q264 0 264 281q0 71 -14 118z" />
<glyph unicode="&#xf9;" horiz-adv-x="1855" d="M16 723v240h654v-453q0 -133 45 -195q53 -76 178 -75q115 0 183.5 69.5t68.5 184.5v30q0 127 -32 159t-161 38l-43 2v240h674v-523q0 -119 31 -155.5t162 -40.5l55 -2v-242h-686v160q-100 -100 -164 -135q-119 -66 -303 -66q-233 0 -340 104.5t-107 339.5v121 q0 106 -25.5 146.5t-105.5 46.5zM447 1462h450l82 -342h-174z" />
<glyph unicode="&#xfa;" horiz-adv-x="1855" d="M16 723v240h654v-453q0 -133 45 -195q53 -76 178 -75q115 0 183.5 69.5t68.5 184.5v30q0 127 -32 159t-161 38l-43 2v240h674v-523q0 -119 31 -155.5t162 -40.5l55 -2v-242h-686v160q-100 -100 -164 -135q-119 -66 -303 -66q-233 0 -340 104.5t-107 339.5v121 q0 106 -25.5 146.5t-105.5 46.5zM733 1108l86 342h448l-358 -342h-176z" />
<glyph unicode="&#xfb;" horiz-adv-x="1855" d="M16 723v240h654v-453q0 -133 45 -195q53 -76 178 -75q115 0 183.5 69.5t68.5 184.5v30q0 127 -32 159t-161 38l-43 2v240h674v-523q0 -119 31 -155.5t162 -40.5l55 -2v-242h-686v160q-100 -100 -164 -135q-119 -66 -303 -66q-233 0 -340 104.5t-107 339.5v121 q0 106 -25.5 146.5t-105.5 46.5zM372 1264l453 205l449 -205l-217 -160l-232 109l-233 -109z" />
<glyph unicode="&#xfc;" horiz-adv-x="1855" d="M16 723v240h654v-453q0 -133 45 -195q53 -76 178 -75q115 0 183.5 69.5t68.5 184.5v30q0 127 -32 159t-161 38l-43 2v240h674v-523q0 -119 31 -155.5t162 -40.5l55 -2v-242h-686v160q-100 -100 -164 -135q-119 -66 -303 -66q-233 0 -340 104.5t-107 339.5v121 q0 106 -25.5 146.5t-105.5 46.5zM289 1306q0 78 67 123q57 41 140 41q82 0 139 -41q65 -45 65 -123q0 -80 -60 -122t-144 -42t-142 39q-66 45 -65 125zM942 1306q0 76 66 123q59 41 139 41q82 0 139 -41q66 -45 66 -123q0 -80 -66 -125q-57 -39 -141 -39t-139 39 q-63 45 -64 125z" />
<glyph unicode="&#xfd;" horiz-adv-x="1673" d="M-16 723v240h911v-240q-59 0 -82 -10q-39 -14 -39 -64q0 -41 64 -125l123 -162l106 156q55 80 55 131q0 76 -110 76h-27q-2 0 -4 -2v240h711v-240h-31q-174 0 -283 -176l-372 -602q-121 -197 -191 -260q-143 -133 -358 -134q-160 0 -271 60q-137 74 -137 219 q0 82 53.5 135t135.5 53q80 0 137 -51t57 -131q0 -27 -12 -57q29 -14 59 -15q82 0 150 76q41 43 98 146l-461 602q-104 135 -282 135zM864 1120l86 342h448l-358 -342h-176z" />
<glyph unicode="&#xfe;" horiz-adv-x="1689" d="M35 1004v239h690v-418q123 170 365 170q236 0 390 -143.5t154 -376.5q0 -221 -152.5 -370.5t-373.5 -149.5q-240 0 -383 168v-131q0 -123 30.5 -158t157.5 -39l64 -2v-239h-940v239l57 2q123 4 157 38t34 159v811q0 129 -29 161.5t-162 36.5zM713 479q0 -102 61.5 -165.5 t163.5 -63.5q100 0 163.5 64.5t63.5 164.5q0 102 -62.5 166t-164.5 64t-163.5 -63.5t-61.5 -166.5z" />
<glyph unicode="&#xff;" horiz-adv-x="1673" d="M-16 723v240h911v-240q-59 0 -82 -10q-39 -14 -39 -64q0 -41 64 -125l123 -162l106 156q55 80 55 131q0 76 -110 76h-27q-2 0 -4 -2v240h711v-240h-31q-174 0 -283 -176l-372 -602q-121 -197 -191 -260q-143 -133 -358 -134q-160 0 -271 60q-137 74 -137 219 q0 82 53.5 135t135.5 53q80 0 137 -51t57 -131q0 -27 -12 -57q29 -14 59 -15q82 0 150 76q41 43 98 146l-461 602q-104 135 -282 135zM439 1302q0 78 67 123q57 41 140 41q82 0 139 -41q65 -45 65 -123q0 -80 -60 -122t-144 -42t-142 39q-66 45 -65 125zM1092 1302 q0 76 66 123q59 41 139 41q82 0 139 -41q66 -45 66 -123q0 -80 -66 -125q-57 -39 -141 -39t-139 39q-63 45 -64 125z" />
<glyph unicode="&#x152;" horiz-adv-x="3108" d="M57 694q0 362 308 551q256 158 641 158q53 0 337 -27q127 -12 277 -28h1395v-519h-258q0 143 -76 205q-68 53 -217 53h-463v-284h121q106 0 147 31q49 37 49 137h262v-588h-262q0 106 -73 141q-49 25 -170 25h-72v-289h455q166 0 231.5 56.5t65.5 218.5h254v-535h-1467 q-98 -16 -186 -29q-215 -29 -318 -28q-399 0 -665 172q-315 203 -316 579zM582 684q0 -229 163 -365q154 -125 388 -124q391 -1 391 241v426q0 172 -123 240q-92 53 -283 53q-221 0 -373 -123q-164 -131 -163 -348z" />
<glyph unicode="&#x153;" horiz-adv-x="2525" d="M55 475q0 266 256 412q209 119 498 119q227 0 389 -64q55 -20 117 -63q63 43 123 65q168 66 379 66q291 0 469 -156q186 -161 186 -448h-891q31 -117 119 -179.5t211 -62.5q182 0 274 127h258q-158 -350 -643 -350q-258 0 -485 141q-106 -72 -195 -100q-117 -37 -317 -37 q-299 0 -500 112q-248 141 -248 418zM549 475q0 -127 74.5 -215t199.5 -88q121 0 197 92q70 86 70 211q0 119 -79 209t-196 90q-123 0 -197 -90q-70 -82 -69 -209zM1567 592h458q-41 223 -237 223q-102 0 -161.5 -60.5t-59.5 -162.5z" />
<glyph unicode="&#x178;" horiz-adv-x="1914" d="M18 1087v261h1016v-261q-23 2 -35 3q-106 0 -106 -70q0 -18 16 -45l191 -219l164 178q39 43 39 78q0 53 -76 69q-18 4 -76 6v261h743v-261q-96 0 -157 -38q-37 -25 -119 -115l-387 -428q0 -150 53 -197q45 -43 213 -49l53 -2v-258h-1120v258l47 2q166 8 213 49 q55 47 55 197l-372 395q-86 92 -119 115q-100 72 -236 71zM569 1591q0 76 64 119q55 37 133 37q80 0 133 -37q62 -43 62 -119q0 -78 -62 -118q-53 -35 -133 -35q-76 0 -133 37q-63 43 -64 116zM1192 1591q0 76 61 119q53 37 133 37q78 0 134 -37q61 -43 61 -119t-63 -116 q-53 -37 -134 -37q-78 0 -131 37q-61 43 -61 116z" />
<glyph unicode="&#x2c6;" horiz-adv-x="1024" d="M63 1313l453 205l449 -205l-217 -160l-232 109l-233 -109z" />
<glyph unicode="&#x2dc;" horiz-adv-x="1024" d="M-2 1190q84 319 328 319q326 -80 389 -79q121 0 157 77l148 -41q-84 -317 -328 -317q-109 31 -162 43q-174 43 -231 43q-115 0 -154 -74z" />
<glyph unicode="&#x2000;" horiz-adv-x="899" />
<glyph unicode="&#x2001;" horiz-adv-x="1799" />
<glyph unicode="&#x2002;" horiz-adv-x="899" />
<glyph unicode="&#x2003;" horiz-adv-x="1799" />
<glyph unicode="&#x2004;" horiz-adv-x="599" />
<glyph unicode="&#x2005;" horiz-adv-x="449" />
<glyph unicode="&#x2006;" horiz-adv-x="299" />
<glyph unicode="&#x2007;" horiz-adv-x="299" />
<glyph unicode="&#x2008;" horiz-adv-x="224" />
<glyph unicode="&#x2009;" horiz-adv-x="359" />
<glyph unicode="&#x200a;" horiz-adv-x="99" />
<glyph unicode="&#x2010;" horiz-adv-x="698" d="M0 369v245h698v-245h-698z" />
<glyph unicode="&#x2011;" horiz-adv-x="698" d="M0 369v245h698v-245h-698z" />
<glyph unicode="&#x2012;" horiz-adv-x="698" d="M0 369v245h698v-245h-698z" />
<glyph unicode="&#x2013;" horiz-adv-x="1349" d="M20 369v245h1309v-245h-1309z" />
<glyph unicode="&#x2014;" horiz-adv-x="2048" d="M20 369v245h2005v-245h-2005z" />
<glyph unicode="&#x2018;" horiz-adv-x="716" d="M141 922q0 139 109 276q90 115 229 197l92 -121q-80 -55 -118 -98q-29 -33 -66 -99q180 -29 180 -194q0 -90 -59 -149.5t-150 -59.5q-104 0 -163 74q-53 68 -54 174z" />
<glyph unicode="&#x2019;" horiz-adv-x="716" d="M152 793q72 53 100 81q43 43 84 115q-182 29 -182 197q0 92 58 149.5t150 57.5q104 0 164 -74q54 -67 54 -176q0 -137 -109 -275q-88 -111 -225 -198z" />
<glyph unicode="&#x201a;" horiz-adv-x="716" d="M133 -231q82 61 107 86q41 43 75 112q-180 25 -180 195q0 90 58.5 148.5t148.5 58.5q104 0 161.5 -72t57.5 -178q0 -131 -112 -271q-90 -113 -224 -200z" />
<glyph unicode="&#x201c;" horiz-adv-x="1239" d="M141 922q0 139 109 276q90 115 229 197l92 -121q-80 -55 -118 -98q-29 -33 -66 -99q180 -29 180 -194q0 -90 -59 -149.5t-150 -59.5q-104 0 -163 74q-53 68 -54 174zM668 922q0 141 108 276q88 111 230 197l90 -121q-80 -55 -119 -98q-29 -33 -66 -99q180 -29 181 -194 q0 -90 -59.5 -149.5t-149.5 -59.5q-100 0 -160 76q-55 68 -55 172z" />
<glyph unicode="&#x201d;" horiz-adv-x="1239" d="M141 797q86 63 113 90q35 37 72 104q-180 31 -181 199q0 88 60.5 146.5t148.5 58.5q102 0 162 -74q55 -66 55 -172q0 -137 -110 -275q-90 -115 -228 -200zM668 797q76 55 113.5 93t68.5 101q-178 31 -178 199q0 90 58 147.5t149 57.5q102 0 160.5 -71t58.5 -175 q0 -139 -109 -277q-90 -111 -229 -198z" />
<glyph unicode="&#x201e;" horiz-adv-x="1239" d="M141 -236q127 88 185 195q-180 31 -181 197q0 90 59.5 148t149.5 58q104 0 164 -73q53 -68 53 -174q0 -135 -110 -273q-90 -113 -228 -198zM668 -236q123 84 182 195q-178 31 -178 197q0 90 58 148t149 58q102 0 163 -73q56 -68 56 -174q0 -252 -338 -471z" />
<glyph unicode="&#x2022;" horiz-adv-x="849" d="M203 682q0 92 65.5 158.5t157.5 66.5t158.5 -66.5t66.5 -158.5t-66.5 -158.5t-158.5 -66.5q-94 0 -158.5 65.5t-64.5 159.5z" />
<glyph unicode="&#x2026;" horiz-adv-x="2045" d="M131 156q0 86 61.5 148.5t147.5 62.5t148.5 -59.5t62.5 -145.5q0 -90 -60.5 -151.5t-150.5 -61.5q-88 0 -148.5 59.5t-60.5 147.5zM813 156q0 86 60.5 148.5t146.5 62.5q88 0 149.5 -58.5t61.5 -146.5q0 -90 -60.5 -151.5t-150.5 -61.5q-86 0 -146.5 60.5t-60.5 146.5z M1493 156q0 88 61.5 149.5t149.5 61.5q86 0 147.5 -59.5t61.5 -145.5q0 -92 -58.5 -152.5t-150.5 -60.5q-86 0 -148.5 60.5t-62.5 146.5z" />
<glyph unicode="&#x202f;" horiz-adv-x="359" />
<glyph unicode="&#x2039;" horiz-adv-x="774" d="M76 492l227 231h299l-229 -231l229 -238h-297z" />
<glyph unicode="&#x203a;" horiz-adv-x="774" d="M172 254l229 238l-229 231h299l227 -231l-227 -238h-299z" />
<glyph unicode="&#x205f;" horiz-adv-x="449" />
<glyph unicode="&#x2122;" horiz-adv-x="2373" d="M78 1083v267h883v-267h-132q0 78 -28.5 108t-106.5 30h-53v-269v-34q-2 -18 -2 -23q0 -61 39 -78q25 -12 96 -12h27v-129h-561v129l90 6q70 4 69 141v269h-53q-137 0 -137 -138h-131zM1016 676v129q8 -4 12 -4q16 -4 35 -4q111 0 111 155v119q0 152 -132 152h-18 q-2 0 -8 -2v129h414l235 -355l184 355h447v-129q-18 2 -29 2q-131 0 -131 -152v-119q0 -152 127 -151q10 0 23 2q4 0 10 2v-129h-504v129q68 0 87 15.5t19 80.5v232l-239 -457h-64l-276 416v-156q0 -92 61 -119q18 -8 64 -12v-129h-428z" />
<glyph unicode="&#xe000;" horiz-adv-x="962" d="M0 0v963h963v-963h-963z" />
</font>
</defs>
</svg>
